Armada-Bold.ufo
<glyph name="exclam" format="1">
  <advance width="328"/>
  <unicode hex="0021"/>
  <outline>
    <contour>
      <point x="273" y="220" type="line"/>
      <point x="55" y="220" type="line"/>
      <point x="55" y="720" type="line"/>
      <point x="273" y="720" type="line"/>
    </contour>
    <contour>
      <point x="275" y="0" type="line"/>
      <point x="53" y="0" type="line"/>
      <point x="53" y="160" type="line"/>
      <point x="275" y="160" type="line"/>
    </contour>
  </outline>
</glyph>
<glyph name="quotedbl" format="1">
  <advance width="629"/>
  <unicode hex="0022"/>
  <outline>
    <contour>
      <point x="572" y="430" type="line"/>
      <point x="362" y="430" type="line"/>
      <point x="362" y="720" type="line"/>
      <point x="572" y="720" type="line"/>
    </contour>
    <contour>
      <point x="268" y="430" type="line"/>
      <point x="58" y="430" type="line"/>
      <point x="58" y="720" type="line"/>
      <point x="268" y="720" type="line"/>
    </contour>
  </outline>
</glyph>
<glyph name="numbersign" format="1">
  <advance width="803"/>
  <unicode hex="0023"/>
  <outline>
    <contour>
      <point x="757" y="142" type="line"/>
      <point x="660" y="142" type="line"/>
      <point x="660" y="0" type="line"/>
      <point x="464" y="0" type="line"/>
      <point x="464" y="142" type="line"/>
      <point x="337" y="142" type="line"/>
      <point x="337" y="0" type="line"/>
      <point x="141" y="0" type="line"/>
      <point x="141" y="142" type="line"/>
      <point x="43" y="142" type="line"/>
      <point x="43" y="299" type="line"/>
      <point x="141" y="299" type="line"/>
      <point x="141" y="425" type="line"/>
      <point x="43" y="425" type="line"/>
      <point x="43" y="581" type="line"/>
      <point x="141" y="581" type="line"/>
      <point x="141" y="720" type="line"/>
      <point x="337" y="720" type="line"/>
      <point x="337" y="581" type="line"/>
      <point x="464" y="581" type="line"/>
      <point x="464" y="720" type="line"/>
      <point x="660" y="720" type="line"/>
      <point x="660" y="581" type="line"/>
      <point x="757" y="581" type="line"/>
      <point x="757" y="425" type="line"/>
      <point x="660" y="425" type="line"/>
      <point x="660" y="299" type="line"/>
      <point x="757" y="299" type="line"/>
    </contour>
    <contour>
      <point x="467" y="291" type="line"/>
      <point x="467" y="432" type="line"/>
      <point x="334" y="432" type="line"/>
      <point x="334" y="291" type="line"/>
    </contour>
  </outline>
</glyph>
<glyph name="dollar" format="1">
  <advance width="735"/>
  <unicode hex="0024"/>
  <outline>
    <contour>
      <point x="687" y="59" type="line"/>
      <point x="625" y="24"/>
      <point x="555" y="4"/>
      <point x="482" y="-4" type="curve"/>
      <point x="482" y="-112" type="line"/>
      <point x="263" y="-112" type="line"/>
      <point x="263" y="-4" type="line"/>
      <point x="188" y="4"/>
      <point x="118" y="23"/>
      <point x="55" y="59" type="curve"/>
      <point x="55" y="227" type="line"/>
      <point x="267" y="227" type="line"/>
      <point x="267" y="154" type="line"/>
      <point x="299" y="144"/>
      <point x="329" y="139"/>
      <point x="371" y="139" type="curve" smooth="yes"/>
      <point x="413" y="139"/>
      <point x="444" y="144"/>
      <point x="475" y="154" type="curve"/>
      <point x="475" y="251" type="line"/>
      <point x="56" y="337" type="line"/>
      <point x="56" y="662" type="line"/>
      <point x="118" y="696"/>
      <point x="187" y="716"/>
      <point x="260" y="724" type="curve"/>
      <point x="260" y="813" type="line"/>
      <point x="479" y="813" type="line"/>
      <point x="479" y="724" type="line"/>
      <point x="553" y="716"/>
      <point x="622" y="697"/>
      <point x="686" y="662" type="curve"/>
      <point x="686" y="493" type="line"/>
      <point x="474" y="493" type="line"/>
      <point x="474" y="566" type="line"/>
      <point x="442" y="576"/>
      <point x="413" y="581"/>
      <point x="371" y="581" type="curve" smooth="yes"/>
      <point x="329" y="581"/>
      <point x="300" y="576"/>
      <point x="268" y="566" type="curve"/>
      <point x="268" y="463" type="line"/>
      <point x="687" y="377" type="line"/>
    </contour>
  </outline>
</glyph>
<glyph name="percent" format="1">
  <advance width="1367"/>
  <unicode hex="0025"/>
  <outline>
    <contour>
      <point x="1315" y="48" type="line"/>
      <point x="1251" y="11"/>
      <point x="1161" y="-12"/>
      <point x="1075" y="-12" type="curve" smooth="yes"/>
      <point x="990" y="-12"/>
      <point x="901" y="11"/>
      <point x="835" y="48" type="curve"/>
      <point x="835" y="354" type="line"/>
      <point x="900" y="391"/>
      <point x="989" y="414"/>
      <point x="1075" y="414" type="curve" smooth="yes"/>
      <point x="1160" y="414"/>
      <point x="1250" y="391"/>
      <point x="1315" y="354" type="curve"/>
    </contour>
    <contour>
      <point x="933" y="720" type="line"/>
      <point x="646" y="0" type="line"/>
      <point x="434" y="0" type="line"/>
      <point x="720" y="720" type="line"/>
    </contour>
    <contour>
      <point x="532" y="366" type="line"/>
      <point x="468" y="330"/>
      <point x="379" y="306"/>
      <point x="292" y="306" type="curve" smooth="yes"/>
      <point x="207" y="306"/>
      <point x="117" y="329"/>
      <point x="52" y="366" type="curve"/>
      <point x="52" y="673" type="line"/>
      <point x="116" y="709"/>
      <point x="206" y="733"/>
      <point x="292" y="733" type="curve" smooth="yes"/>
      <point x="378" y="733"/>
      <point x="467" y="710"/>
      <point x="532" y="673" type="curve"/>
    </contour>
    <contour>
      <point x="1145" y="115" type="curve"/>
      <point x="1145" y="277" type="line"/>
      <point x="1126" y="285"/>
      <point x="1103" y="289"/>
      <point x="1075" y="289" type="curve" smooth="yes"/>
      <point x="1047" y="289"/>
      <point x="1024" y="285"/>
      <point x="1005" y="277" type="curve"/>
      <point x="1005" y="115" type="line"/>
      <point x="1024" y="107"/>
      <point x="1047" y="103"/>
      <point x="1075" y="103" type="curve" smooth="yes"/>
      <point x="1103" y="103"/>
      <point x="1126" y="107"/>
    </contour>
    <contour>
      <point x="361" y="434" type="curve"/>
      <point x="361" y="595" type="line"/>
      <point x="343" y="604"/>
      <point x="320" y="608"/>
      <point x="292" y="608" type="curve" smooth="yes"/>
      <point x="265" y="608"/>
      <point x="241" y="604"/>
      <point x="222" y="595" type="curve"/>
      <point x="222" y="434" type="line"/>
      <point x="241" y="425"/>
      <point x="265" y="421"/>
      <point x="292" y="421" type="curve" smooth="yes"/>
      <point x="320" y="421"/>
      <point x="343" y="425"/>
    </contour>
  </outline>
</glyph>
<glyph name="ampersand" format="1">
  <advance width="833"/>
  <unicode hex="0026"/>
  <outline>
    <contour>
      <point x="801" y="285" type="line"/>
      <point x="734" y="285" type="line"/>
      <point x="734" y="59" type="line"/>
      <point x="643" y="13"/>
      <point x="527" y="-7"/>
      <point x="393" y="-7" type="curve" smooth="yes"/>
      <point x="267" y="-7"/>
      <point x="134" y="20"/>
      <point x="52" y="75" type="curve"/>
      <point x="52" y="313" type="line"/>
      <point x="86" y="339"/>
      <point x="142" y="361"/>
      <point x="203" y="369" type="curve"/>
      <point x="141" y="380"/>
      <point x="93" y="399"/>
      <point x="58" y="424" type="curve"/>
      <point x="58" y="650" type="line"/>
      <point x="141" y="705"/>
      <point x="273" y="733"/>
      <point x="396" y="733" type="curve" smooth="yes"/>
      <point x="529" y="733"/>
      <point x="644" y="713"/>
      <point x="735" y="664" type="curve"/>
      <point x="735" y="488" type="line"/>
      <point x="509" y="488" type="line"/>
      <point x="509" y="569" type="line"/>
      <point x="477" y="579"/>
      <point x="443" y="582"/>
      <point x="395" y="582" type="curve" smooth="yes"/>
      <point x="356" y="582"/>
      <point x="309" y="577"/>
      <point x="283" y="563" type="curve"/>
      <point x="283" y="462" type="line"/>
      <point x="311" y="448"/>
      <point x="344" y="441"/>
      <point x="404" y="441" type="curve" smooth="yes"/>
      <point x="801" y="441" type="line"/>
    </contour>
    <contour>
      <point x="510" y="144" type="curve"/>
      <point x="510" y="293" type="line"/>
      <point x="403" y="293" type="line" smooth="yes"/>
      <point x="340" y="293"/>
      <point x="308" y="287"/>
      <point x="278" y="271" type="curve"/>
      <point x="278" y="151" type="line"/>
      <point x="303" y="137"/>
      <point x="353" y="132"/>
      <point x="393" y="132" type="curve" smooth="yes"/>
      <point x="435" y="132"/>
      <point x="484" y="134"/>
    </contour>
  </outline>
</glyph>
<glyph name="quotesingle" format="1">
  <advance width="332"/>
  <unicode hex="0027"/>
  <outline>
    <contour>
      <point x="275" y="430" type="line"/>
      <point x="58" y="430" type="line"/>
      <point x="58" y="720" type="line"/>
      <point x="275" y="720" type="line"/>
    </contour>
  </outline>
</glyph>
<glyph name="parenleft" format="1">
  <advance width="443"/>
  <unicode hex="0028"/>
  <outline>
    <contour>
      <point x="392" y="-7" type="line"/>
      <point x="247" y="-7"/>
      <point x="141" y="27"/>
      <point x="60" y="80" type="curve"/>
      <point x="60" y="641" type="line"/>
      <point x="141" y="692"/>
      <point x="246" y="727"/>
      <point x="392" y="727" type="curve"/>
      <point x="392" y="554" type="line"/>
      <point x="349" y="554"/>
      <point x="302" y="545"/>
      <point x="275" y="534" type="curve"/>
      <point x="275" y="185" type="line"/>
      <point x="303" y="175"/>
      <point x="349" y="166"/>
      <point x="392" y="165" type="curve"/>
    </contour>
  </outline>
</glyph>
<glyph name="parenright" format="1">
  <advance width="443"/>
  <unicode hex="0029"/>
  <outline>
    <contour>
      <point x="383" y="79" type="line"/>
      <point x="302" y="28"/>
      <point x="197" y="-7"/>
      <point x="51" y="-7" type="curve"/>
      <point x="51" y="165" type="line"/>
      <point x="95" y="166"/>
      <point x="141" y="174"/>
      <point x="168" y="185" type="curve"/>
      <point x="168" y="534" type="line"/>
      <point x="141" y="545"/>
      <point x="95" y="554"/>
      <point x="51" y="554" type="curve"/>
      <point x="51" y="727" type="line"/>
      <point x="197" y="727"/>
      <point x="301" y="693"/>
      <point x="383" y="640" type="curve"/>
    </contour>
  </outline>
</glyph>
<glyph name="asterisk" format="1">
  <advance width="830"/>
  <unicode hex="002A"/>
  <outline>
    <contour>
      <point x="775" y="210" type="line"/>
      <point x="581" y="210" type="line"/>
      <point x="581" y="328" type="line"/>
      <point x="566" y="338"/>
      <point x="543" y="345"/>
      <point x="509" y="348" type="curve"/>
      <point x="509" y="130" type="line"/>
      <point x="321" y="130" type="line"/>
      <point x="321" y="348" type="line"/>
      <point x="287" y="345"/>
      <point x="265" y="338"/>
      <point x="248" y="328" type="curve"/>
      <point x="248" y="210" type="line"/>
      <point x="54" y="210" type="line"/>
      <point x="54" y="375" type="line"/>
      <point x="88" y="400"/>
      <point x="136" y="416"/>
      <point x="187" y="426" type="curve"/>
      <point x="136" y="436"/>
      <point x="88" y="453"/>
      <point x="54" y="478" type="curve"/>
      <point x="54" y="643" type="line"/>
      <point x="248" y="643" type="line"/>
      <point x="248" y="524" type="line"/>
      <point x="265" y="515"/>
      <point x="287" y="507"/>
      <point x="321" y="504" type="curve"/>
      <point x="321" y="723" type="line"/>
      <point x="509" y="723" type="line"/>
      <point x="509" y="504" type="line"/>
      <point x="543" y="507"/>
      <point x="566" y="515"/>
      <point x="581" y="524" type="curve"/>
      <point x="581" y="643" type="line"/>
      <point x="775" y="643" type="line"/>
      <point x="775" y="478" type="line"/>
      <point x="742" y="453"/>
      <point x="694" y="436"/>
      <point x="643" y="426" type="curve"/>
      <point x="694" y="417"/>
      <point x="742" y="401"/>
      <point x="775" y="375" type="curve"/>
    </contour>
  </outline>
</glyph>
<glyph name="plus" format="1">
  <advance width="566"/>
  <unicode hex="002B"/>
  <outline>
    <contour>
      <point x="534" y="288" type="line"/>
      <point x="376" y="288" type="line"/>
      <point x="376" y="137" type="line"/>
      <point x="190" y="137" type="line"/>
      <point x="190" y="288" type="line"/>
      <point x="33" y="288" type="line"/>
      <point x="33" y="453" type="line"/>
      <point x="190" y="453" type="line"/>
      <point x="190" y="603" type="line"/>
      <point x="376" y="603" type="line"/>
      <point x="376" y="453" type="line"/>
      <point x="534" y="453" type="line"/>
    </contour>
  </outline>
</glyph>
<glyph name="comma" format="1">
  <advance width="305"/>
  <unicode hex="002C"/>
  <outline>
    <contour>
      <point x="267" y="179" type="line"/>
      <point x="229" y="-96" type="line"/>
      <point x="23" y="-96" type="line"/>
      <point x="60" y="179" type="line"/>
    </contour>
  </outline>
</glyph>
<glyph name="hyphen" format="1">
  <advance width="386"/>
  <unicode hex="002D"/>
  <unicode hex="2010"/>
  <unicode hex="2011"/>
  <outline>
    <contour>
      <point x="357" y="218" type="line"/>
      <point x="30" y="218" type="line"/>
      <point x="30" y="378" type="line"/>
      <point x="357" y="378" type="line"/>
    </contour>
  </outline>
</glyph>
<glyph name="period" format="1">
  <advance width="305"/>
  <unicode hex="002E"/>
  <outline>
    <contour>
      <point x="256" y="0" type="line"/>
      <point x="48" y="0" type="line"/>
      <point x="48" y="179" type="line"/>
      <point x="256" y="179" type="line"/>
    </contour>
  </outline>
</glyph>
<glyph name="zero" format="1">
  <advance width="795"/>
  <unicode hex="0030"/>
  <outline>
    <contour>
      <point x="734" y="71" type="line"/>
      <point x="646" y="17"/>
      <point x="521" y="-13"/>
      <point x="397" y="-13" type="curve" smooth="yes"/>
      <point x="274" y="-13"/>
      <point x="150" y="17"/>
      <point x="60" y="71" type="curve"/>
      <point x="60" y="650" type="line"/>
      <point x="149" y="703"/>
      <point x="274" y="733"/>
      <point x="397" y="733" type="curve" smooth="yes"/>
      <point x="520" y="733"/>
      <point x="645" y="703"/>
      <point x="734" y="650" type="curve"/>
    </contour>
    <contour>
      <point x="512" y="173" type="curve"/>
      <point x="512" y="546" type="line"/>
      <point x="482" y="560"/>
      <point x="445" y="567"/>
      <point x="397" y="567" type="curve" smooth="yes"/>
      <point x="349" y="567"/>
      <point x="312" y="560"/>
      <point x="281" y="546" type="curve"/>
      <point x="281" y="173" type="line"/>
      <point x="312" y="160"/>
      <point x="349" y="152"/>
      <point x="397" y="152" type="curve" smooth="yes"/>
      <point x="445" y="152"/>
      <point x="482" y="160"/>
    </contour>
  </outline>
</glyph>
<glyph name="one" format="1">
  <advance width="516"/>
  <unicode hex="0031"/>
  <outline>
    <contour>
      <point x="483" y="0" type="line"/>
      <point x="39" y="0" type="line"/>
      <point x="39" y="174" type="line"/>
      <point x="150" y="174" type="line"/>
      <point x="150" y="545" type="line"/>
      <point x="45" y="545" type="line"/>
      <point x="45" y="720" type="line"/>
      <point x="372" y="720" type="line"/>
      <point x="372" y="174" type="line"/>
      <point x="483" y="174" type="line"/>
    </contour>
  </outline>
</glyph>
<glyph name="two" format="1">
  <advance width="729"/>
  <unicode hex="0032"/>
  <outline>
    <contour>
      <point x="679" y="0" type="line"/>
      <point x="41" y="0" type="line"/>
      <point x="41" y="208" type="line"/>
      <point x="457" y="484" type="line"/>
      <point x="457" y="557" type="line"/>
      <point x="427" y="568"/>
      <point x="395" y="573"/>
      <point x="357" y="573" type="curve" smooth="yes"/>
      <point x="317" y="573"/>
      <point x="283" y="568"/>
      <point x="254" y="557" type="curve"/>
      <point x="254" y="482" type="line"/>
      <point x="43" y="482" type="line"/>
      <point x="43" y="658" type="line"/>
      <point x="136" y="710"/>
      <point x="245" y="733"/>
      <point x="359" y="733" type="curve" smooth="yes"/>
      <point x="477" y="733"/>
      <point x="584" y="709"/>
      <point x="675" y="658" type="curve"/>
      <point x="675" y="395" type="line"/>
      <point x="332" y="173" type="line"/>
      <point x="332" y="171" type="line"/>
      <point x="679" y="171" type="line"/>
    </contour>
  </outline>
</glyph>
<glyph name="three" format="1">
  <advance width="771"/>
  <unicode hex="0033"/>
  <outline>
    <contour>
      <point x="711" y="62" type="line"/>
      <point x="619" y="11"/>
      <point x="503" y="-13"/>
      <point x="382" y="-13" type="curve" smooth="yes"/>
      <point x="262" y="-13"/>
      <point x="146" y="10"/>
      <point x="54" y="62" type="curve"/>
      <point x="54" y="227" type="line"/>
      <point x="272" y="227" type="line"/>
      <point x="272" y="160" type="line"/>
      <point x="301" y="149"/>
      <point x="339" y="144"/>
      <point x="383" y="144" type="curve" smooth="yes"/>
      <point x="424" y="144"/>
      <point x="462" y="149"/>
      <point x="493" y="160" type="curve"/>
      <point x="493" y="257" type="line"/>
      <point x="463" y="272"/>
      <point x="432" y="278"/>
      <point x="370" y="278" type="curve" smooth="yes"/>
      <point x="183" y="278" type="line"/>
      <point x="183" y="447" type="line"/>
      <point x="370" y="447" type="line" smooth="yes"/>
      <point x="429" y="447"/>
      <point x="463" y="454"/>
      <point x="491" y="468" type="curve"/>
      <point x="491" y="561" type="line"/>
      <point x="460" y="572"/>
      <point x="423" y="577"/>
      <point x="382" y="577" type="curve" smooth="yes"/>
      <point x="338" y="577"/>
      <point x="302" y="572"/>
      <point x="273" y="561" type="curve"/>
      <point x="273" y="493" type="line"/>
      <point x="55" y="493" type="line"/>
      <point x="55" y="658" type="line"/>
      <point x="147" y="710"/>
      <point x="262" y="733"/>
      <point x="381" y="733" type="curve" smooth="yes"/>
      <point x="503" y="733"/>
      <point x="617" y="709"/>
      <point x="708" y="658" type="curve"/>
      <point x="708" y="421" type="line"/>
      <point x="673" y="396"/>
      <point x="625" y="377"/>
      <point x="563" y="366" type="curve"/>
      <point x="623" y="357"/>
      <point x="679" y="334"/>
      <point x="711" y="310" type="curve"/>
    </contour>
  </outline>
</glyph>
<glyph name="four" format="1">
  <advance width="779"/>
  <unicode hex="0034"/>
  <outline>
    <contour>
      <point x="710" y="0" type="line"/>
      <point x="488" y="0" type="line"/>
      <point x="488" y="204" type="line"/>
      <point x="59" y="204" type="line"/>
      <point x="59" y="720" type="line"/>
      <point x="281" y="720" type="line"/>
      <point x="281" y="372" type="line"/>
      <point x="488" y="372" type="line"/>
      <point x="488" y="720" type="line"/>
      <point x="710" y="720" type="line"/>
    </contour>
  </outline>
</glyph>
<glyph name="five" format="1">
  <advance width="750"/>
  <unicode hex="0035"/>
  <outline>
    <contour>
      <point x="697" y="57" type="line"/>
      <point x="605" y="10"/>
      <point x="500" y="-13"/>
      <point x="379" y="-13" type="curve" smooth="yes"/>
      <point x="259" y="-13"/>
      <point x="153" y="9"/>
      <point x="61" y="57" type="curve"/>
      <point x="61" y="227" type="line"/>
      <point x="275" y="227" type="line"/>
      <point x="275" y="156" type="line"/>
      <point x="304" y="146"/>
      <point x="335" y="142"/>
      <point x="379" y="142" type="curve" smooth="yes"/>
      <point x="420" y="142"/>
      <point x="451" y="146"/>
      <point x="481" y="156" type="curve"/>
      <point x="481" y="289" type="line"/>
      <point x="457" y="301"/>
      <point x="427" y="305"/>
      <point x="377" y="305" type="curve" smooth="yes"/>
      <point x="65" y="305" type="line"/>
      <point x="65" y="720" type="line"/>
      <point x="695" y="720" type="line"/>
      <point x="695" y="551" type="line"/>
      <point x="259" y="551" type="line"/>
      <point x="259" y="462" type="line"/>
      <point x="261" y="462"/>
      <point x="376" y="462"/>
      <point x="380" y="462" type="curve" smooth="yes"/>
      <point x="510" y="462"/>
      <point x="619" y="445"/>
      <point x="697" y="403" type="curve"/>
    </contour>
  </outline>
</glyph>
<glyph name="six" format="1">
  <advance width="778"/>
  <unicode hex="0036"/>
  <outline>
    <contour>
      <point x="718" y="69" type="line"/>
      <point x="631" y="12"/>
      <point x="507" y="-13"/>
      <point x="389" y="-13" type="curve" smooth="yes"/>
      <point x="273" y="-13"/>
      <point x="150" y="12"/>
      <point x="60" y="69" type="curve"/>
      <point x="60" y="658" type="line"/>
      <point x="151" y="709"/>
      <point x="268" y="733"/>
      <point x="389" y="733" type="curve" smooth="yes"/>
      <point x="509" y="733"/>
      <point x="624" y="711"/>
      <point x="716" y="663" type="curve"/>
      <point x="716" y="493" type="line"/>
      <point x="498" y="493" type="line"/>
      <point x="498" y="562" type="line"/>
      <point x="470" y="571"/>
      <point x="433" y="576"/>
      <point x="388" y="576" type="curve" smooth="yes"/>
      <point x="347" y="576"/>
      <point x="308" y="571"/>
      <point x="277" y="560" type="curve"/>
      <point x="277" y="422" type="line"/>
      <point x="312" y="437"/>
      <point x="370" y="448"/>
      <point x="423" y="448" type="curve" smooth="yes"/>
      <point x="535" y="448"/>
      <point x="637" y="429"/>
      <point x="718" y="387" type="curve"/>
    </contour>
    <contour>
      <point x="501" y="153" type="curve"/>
      <point x="501" y="291" type="line"/>
      <point x="477" y="301"/>
      <point x="443" y="307"/>
      <point x="389" y="307" type="curve" smooth="yes"/>
      <point x="352" y="307"/>
      <point x="310" y="301"/>
      <point x="276" y="290" type="curve"/>
      <point x="276" y="153" type="line"/>
      <point x="306" y="140"/>
      <point x="350" y="136"/>
      <point x="389" y="135" type="curve" smooth="yes"/>
      <point x="428" y="134"/>
      <point x="472" y="140"/>
    </contour>
  </outline>
</glyph>
<glyph name="seven" format="1">
  <advance width="683"/>
  <unicode hex="0037"/>
  <outline>
    <contour>
      <point x="644" y="555" type="line"/>
      <point x="369" y="0" type="line"/>
      <point x="133" y="0" type="line"/>
      <point x="406" y="547" type="line"/>
      <point x="38" y="547" type="line"/>
      <point x="38" y="720" type="line"/>
      <point x="644" y="720" type="line"/>
    </contour>
  </outline>
</glyph>
<glyph name="eight" format="1">
  <advance width="785"/>
  <unicode hex="0038"/>
  <outline>
    <contour>
      <point x="725" y="69" type="line"/>
      <point x="641" y="15"/>
      <point x="518" y="-13"/>
      <point x="393" y="-13" type="curve" smooth="yes"/>
      <point x="267" y="-13"/>
      <point x="144" y="15"/>
      <point x="60" y="69" type="curve"/>
      <point x="60" y="310" type="line"/>
      <point x="92" y="337"/>
      <point x="152" y="359"/>
      <point x="210" y="367" type="curve"/>
      <point x="151" y="377"/>
      <point x="100" y="397"/>
      <point x="68" y="422" type="curve"/>
      <point x="68" y="652" type="line"/>
      <point x="156" y="709"/>
      <point x="275" y="733"/>
      <point x="393" y="733" type="curve" smooth="yes"/>
      <point x="510" y="733"/>
      <point x="630" y="709"/>
      <point x="717" y="652" type="curve"/>
      <point x="717" y="422" type="line"/>
      <point x="685" y="397"/>
      <point x="633" y="377"/>
      <point x="575" y="367" type="curve"/>
      <point x="632" y="359"/>
      <point x="693" y="337"/>
      <point x="725" y="310" type="curve"/>
    </contour>
    <contour>
      <point x="498" y="455" type="curve"/>
      <point x="498" y="571" type="line"/>
      <point x="469" y="583"/>
      <point x="428" y="588"/>
      <point x="393" y="588" type="curve" smooth="yes"/>
      <point x="356" y="588"/>
      <point x="315" y="583"/>
      <point x="287" y="571" type="curve"/>
      <point x="287" y="455" type="line"/>
      <point x="313" y="441"/>
      <point x="356" y="435"/>
      <point x="393" y="435" type="curve" smooth="yes"/>
      <point x="429" y="435"/>
      <point x="470" y="441"/>
    </contour>
    <contour>
      <point x="506" y="149" type="curve"/>
      <point x="506" y="268" type="line"/>
      <point x="477" y="282"/>
      <point x="432" y="288"/>
      <point x="393" y="288" type="curve" smooth="yes"/>
      <point x="353" y="288"/>
      <point x="308" y="282"/>
      <point x="280" y="268" type="curve"/>
      <point x="280" y="149" type="line"/>
      <point x="309" y="135"/>
      <point x="355" y="130"/>
      <point x="393" y="130" type="curve" smooth="yes"/>
      <point x="429" y="130"/>
      <point x="476" y="135"/>
    </contour>
  </outline>
</glyph>
<glyph name="nine" format="1">
  <advance width="778"/>
  <unicode hex="0039"/>
  <outline>
    <contour>
      <point x="718" y="62" type="line"/>
      <point x="626" y="11"/>
      <point x="510" y="-13"/>
      <point x="389" y="-13" type="curve" smooth="yes"/>
      <point x="269" y="-13"/>
      <point x="154" y="9"/>
      <point x="62" y="57" type="curve"/>
      <point x="62" y="227" type="line"/>
      <point x="280" y="227" type="line"/>
      <point x="280" y="158" type="line"/>
      <point x="308" y="149"/>
      <point x="345" y="144"/>
      <point x="390" y="144" type="curve" smooth="yes"/>
      <point x="431" y="144"/>
      <point x="470" y="149"/>
      <point x="501" y="160" type="curve"/>
      <point x="501" y="298" type="line"/>
      <point x="466" y="283"/>
      <point x="408" y="272"/>
      <point x="355" y="272" type="curve" smooth="yes"/>
      <point x="243" y="272"/>
      <point x="141" y="291"/>
      <point x="60" y="333" type="curve"/>
      <point x="60" y="651" type="line"/>
      <point x="148" y="708"/>
      <point x="271" y="733"/>
      <point x="389" y="733" type="curve" smooth="yes"/>
      <point x="505" y="733"/>
      <point x="628" y="708"/>
      <point x="718" y="651" type="curve"/>
    </contour>
    <contour>
      <point x="501" y="430" type="curve"/>
      <point x="501" y="567" type="line"/>
      <point x="472" y="580"/>
      <point x="428" y="584"/>
      <point x="389" y="585" type="curve" smooth="yes"/>
      <point x="350" y="585"/>
      <point x="306" y="580"/>
      <point x="276" y="567" type="curve"/>
      <point x="276" y="429" type="line"/>
      <point x="301" y="419"/>
      <point x="335" y="413"/>
      <point x="389" y="413" type="curve" smooth="yes"/>
      <point x="426" y="413"/>
      <point x="468" y="419"/>
    </contour>
  </outline>
</glyph>
<glyph name="colon" format="1">
  <advance width="310"/>
  <unicode hex="003A"/>
  <outline>
    <contour>
      <point x="259" y="312" type="line"/>
      <point x="51" y="312" type="line"/>
      <point x="51" y="480" type="line"/>
      <point x="259" y="480" type="line"/>
    </contour>
    <contour>
      <point x="259" y="0" type="line"/>
      <point x="51" y="0" type="line"/>
      <point x="51" y="167" type="line"/>
      <point x="259" y="167" type="line"/>
    </contour>
  </outline>
</glyph>
<glyph name="semicolon" format="1">
  <advance width="310"/>
  <unicode hex="003B"/>
  <outline>
    <contour>
      <point x="259" y="312" type="line"/>
      <point x="51" y="312" type="line"/>
      <point x="51" y="480" type="line"/>
      <point x="259" y="480" type="line"/>
    </contour>
    <contour>
      <point x="264" y="167" type="line"/>
      <point x="229" y="-96" type="line"/>
      <point x="23" y="-96" type="line"/>
      <point x="58" y="167" type="line"/>
    </contour>
  </outline>
</glyph>
<glyph name="less" format="1">
  <advance width="507"/>
  <unicode hex="003C"/>
  <outline>
    <contour>
      <point x="453" y="25" type="line"/>
      <point x="40" y="266" type="line"/>
      <point x="40" y="454" type="line"/>
      <point x="453" y="695" type="line"/>
      <point x="453" y="500" type="line"/>
      <point x="213" y="360" type="line"/>
      <point x="453" y="221" type="line"/>
    </contour>
  </outline>
</glyph>
<glyph name="equal" format="1">
  <advance width="522"/>
  <unicode hex="003D"/>
  <outline>
    <contour>
      <point x="476" y="410" type="line"/>
      <point x="46" y="410" type="line"/>
      <point x="46" y="569" type="line"/>
      <point x="476" y="569" type="line"/>
    </contour>
    <contour>
      <point x="476" y="172" type="line"/>
      <point x="46" y="172" type="line"/>
      <point x="46" y="330" type="line"/>
      <point x="476" y="330" type="line"/>
    </contour>
  </outline>
</glyph>
<glyph name="greater" format="1">
  <advance width="507"/>
  <unicode hex="003E"/>
  <outline>
    <contour>
      <point x="468" y="266" type="line"/>
      <point x="54" y="25" type="line"/>
      <point x="54" y="221" type="line"/>
      <point x="295" y="360" type="line"/>
      <point x="54" y="500" type="line"/>
      <point x="54" y="695" type="line"/>
      <point x="468" y="454" type="line"/>
    </contour>
  </outline>
</glyph>
<glyph name="question" format="1">
  <advance width="702"/>
  <unicode hex="003F"/>
  <outline>
    <contour>
      <point x="666" y="398" type="line"/>
      <point x="463" y="280" type="line"/>
      <point x="463" y="215" type="line"/>
      <point x="244" y="215" type="line"/>
      <point x="244" y="362" type="line"/>
      <point x="448" y="480" type="line"/>
      <point x="448" y="558" type="line"/>
      <point x="417" y="569"/>
      <point x="386" y="574"/>
      <point x="348" y="574" type="curve" smooth="yes"/>
      <point x="308" y="574"/>
      <point x="274" y="569"/>
      <point x="245" y="558" type="curve"/>
      <point x="245" y="482" type="line"/>
      <point x="35" y="482" type="line"/>
      <point x="35" y="658" type="line"/>
      <point x="127" y="710"/>
      <point x="236" y="733"/>
      <point x="350" y="733" type="curve" smooth="yes"/>
      <point x="467" y="733"/>
      <point x="575" y="709"/>
      <point x="666" y="658" type="curve"/>
    </contour>
    <contour>
      <point x="464" y="0" type="line"/>
      <point x="242" y="0" type="line"/>
      <point x="242" y="160" type="line"/>
      <point x="464" y="160" type="line"/>
    </contour>
  </outline>
</glyph>
<glyph name="at" format="1">
  <advance width="913"/>
  <unicode hex="0040"/>
  <outline>
    <contour>
      <point x="851" y="76" type="line"/>
      <point x="750" y="16"/>
      <point x="607" y="-13"/>
      <point x="457" y="-13" type="curve" smooth="yes"/>
      <point x="304" y="-13"/>
      <point x="161" y="17"/>
      <point x="60" y="76" type="curve"/>
      <point x="60" y="644" type="line"/>
      <point x="161" y="703"/>
      <point x="304" y="733"/>
      <point x="457" y="733" type="curve" smooth="yes"/>
      <point x="607" y="733"/>
      <point x="750" y="704"/>
      <point x="851" y="644" type="curve"/>
      <point x="851" y="304" type="line"/>
      <point x="627" y="304" type="line"/>
      <point x="627" y="210" type="line"/>
      <point x="580" y="189"/>
      <point x="520" y="177"/>
      <point x="456" y="177" type="curve" smooth="yes"/>
      <point x="388" y="177"/>
      <point x="334" y="189"/>
      <point x="286" y="210" type="curve"/>
      <point x="286" y="511" type="line"/>
      <point x="331" y="531"/>
      <point x="385" y="543"/>
      <point x="456" y="543" type="curve" smooth="yes"/>
      <point x="525" y="543"/>
      <point x="579" y="532"/>
      <point x="627" y="511" type="curve"/>
      <point x="627" y="423" type="line"/>
      <point x="691" y="423" type="line"/>
      <point x="691" y="554" type="line"/>
      <point x="631" y="584"/>
      <point x="551" y="601"/>
      <point x="456" y="601" type="curve" smooth="yes"/>
      <point x="363" y="601"/>
      <point x="283" y="585"/>
      <point x="222" y="554" type="curve"/>
      <point x="222" y="166" type="line"/>
      <point x="283" y="135"/>
      <point x="363" y="119"/>
      <point x="456" y="119" type="curve" smooth="yes"/>
      <point x="551" y="119"/>
      <point x="631" y="136"/>
      <point x="691" y="166" type="curve"/>
      <point x="691" y="242" type="line"/>
      <point x="851" y="242" type="line"/>
    </contour>
    <contour>
      <point x="503" y="290" type="curve"/>
      <point x="503" y="432" type="line"/>
      <point x="492" y="436"/>
      <point x="477" y="440"/>
      <point x="456" y="440" type="curve" smooth="yes"/>
      <point x="436" y="440"/>
      <point x="419" y="436"/>
      <point x="409" y="432" type="curve"/>
      <point x="409" y="290" type="line"/>
      <point x="419" y="285"/>
      <point x="436" y="282"/>
      <point x="456" y="282" type="curve" smooth="yes"/>
      <point x="476" y="282"/>
      <point x="491" y="285"/>
    </contour>
  </outline>
</glyph>
<glyph name="A" format="1">
  <advance width="796"/>
  <unicode hex="0041"/>
  <outline>
    <contour>
      <point x="733" y="0" type="line"/>
      <point x="508" y="0" type="line"/>
      <point x="508" y="217" type="line"/>
      <point x="288" y="217" type="line"/>
      <point x="288" y="0" type="line"/>
      <point x="63" y="0" type="line"/>
      <point x="63" y="648" type="line"/>
      <point x="148" y="702"/>
      <point x="276" y="733"/>
      <point x="399" y="733" type="curve" smooth="yes"/>
      <point x="522" y="733"/>
      <point x="648" y="703"/>
      <point x="733" y="648" type="curve"/>
    </contour>
    <contour>
      <point x="508" y="376" type="line"/>
      <point x="508" y="554" type="line"/>
      <point x="478" y="568"/>
      <point x="439" y="575"/>
      <point x="398" y="575" type="curve" smooth="yes"/>
      <point x="357" y="575"/>
      <point x="319" y="568"/>
      <point x="288" y="554" type="curve"/>
      <point x="288" y="376" type="line"/>
    </contour>
  </outline>
</glyph>
<glyph name="B" format="1">
  <advance width="787"/>
  <unicode hex="0042"/>
  <outline>
    <contour>
      <point x="735" y="83" type="line"/>
      <point x="655" y="29"/>
      <point x="536" y="0"/>
      <point x="387" y="0" type="curve" smooth="yes"/>
      <point x="68" y="0" type="line"/>
      <point x="68" y="720" type="line"/>
      <point x="382" y="720" type="line" smooth="yes"/>
      <point x="527" y="720"/>
      <point x="648" y="692"/>
      <point x="729" y="638" type="curve"/>
      <point x="729" y="424" type="line"/>
      <point x="694" y="399"/>
      <point x="646" y="380"/>
      <point x="584" y="369" type="curve"/>
      <point x="645" y="361"/>
      <point x="701" y="339"/>
      <point x="735" y="313" type="curve"/>
    </contour>
    <contour>
      <point x="504" y="457" type="curve"/>
      <point x="504" y="564" type="line"/>
      <point x="478" y="578"/>
      <point x="443" y="584"/>
      <point x="382" y="584" type="curve" smooth="yes"/>
      <point x="292" y="584" type="line"/>
      <point x="292" y="436" type="line"/>
      <point x="385" y="436" type="line" smooth="yes"/>
      <point x="444" y="436"/>
      <point x="477" y="442"/>
    </contour>
    <contour>
      <point x="509" y="153" type="curve"/>
      <point x="509" y="272" type="line"/>
      <point x="479" y="287"/>
      <point x="447" y="293"/>
      <point x="385" y="293" type="curve" smooth="yes"/>
      <point x="292" y="293" type="line"/>
      <point x="292" y="134" type="line"/>
      <point x="387" y="134" type="line" smooth="yes"/>
      <point x="448" y="134"/>
      <point x="484" y="139"/>
    </contour>
  </outline>
</glyph>
<glyph name="C" format="1">
  <advance width="810"/>
  <unicode hex="0043"/>
  <outline>
    <contour>
      <point x="750" y="67" type="line"/>
      <point x="655" y="13"/>
      <point x="528" y="-12"/>
      <point x="406" y="-13" type="curve" smooth="yes"/>
      <point x="286" y="-13"/>
      <point x="158" y="12"/>
      <point x="60" y="67" type="curve"/>
      <point x="60" y="653" type="line"/>
      <point x="155" y="707"/>
      <point x="284" y="733"/>
      <point x="406" y="733" type="curve" smooth="yes"/>
      <point x="525" y="733"/>
      <point x="653" y="709"/>
      <point x="750" y="653" type="curve"/>
      <point x="750" y="453" type="line"/>
      <point x="524" y="453" type="line"/>
      <point x="524" y="549" type="line"/>
      <point x="489" y="562"/>
      <point x="448" y="568"/>
      <point x="405" y="568" type="curve" smooth="yes"/>
      <point x="363" y="568"/>
      <point x="323" y="562"/>
      <point x="286" y="549" type="curve"/>
      <point x="286" y="172" type="line"/>
      <point x="321" y="158"/>
      <point x="362" y="152"/>
      <point x="405" y="152" type="curve" smooth="yes"/>
      <point x="447" y="152"/>
      <point x="488" y="158"/>
      <point x="524" y="172" type="curve"/>
      <point x="524" y="267" type="line"/>
      <point x="750" y="267" type="line"/>
    </contour>
  </outline>
</glyph>
<glyph name="D" format="1">
  <advance width="820"/>
  <unicode hex="0044"/>
  <outline>
    <contour>
      <point x="760" y="108" type="line"/>
      <point x="674" y="43"/>
      <point x="547" y="0"/>
      <point x="392" y="0" type="curve" smooth="yes"/>
      <point x="68" y="0" type="line"/>
      <point x="68" y="720" type="line"/>
      <point x="392" y="720" type="line" smooth="yes"/>
      <point x="545" y="720"/>
      <point x="671" y="679"/>
      <point x="760" y="613" type="curve"/>
    </contour>
    <contour>
      <point x="534" y="189" type="curve"/>
      <point x="534" y="531" type="line"/>
      <point x="504" y="549"/>
      <point x="455" y="561"/>
      <point x="392" y="561" type="curve" smooth="yes"/>
      <point x="294" y="561" type="line"/>
      <point x="294" y="159" type="line"/>
      <point x="392" y="159" type="line" smooth="yes"/>
      <point x="454" y="159"/>
      <point x="503" y="171"/>
    </contour>
  </outline>
</glyph>
<glyph name="E" format="1">
  <advance width="809"/>
  <unicode hex="0045"/>
  <outline>
    <contour>
      <point x="750" y="59" type="line"/>
      <point x="655" y="11"/>
      <point x="527" y="-13"/>
      <point x="406" y="-13" type="curve" smooth="yes"/>
      <point x="286" y="-13"/>
      <point x="158" y="10"/>
      <point x="60" y="59" type="curve"/>
      <point x="60" y="661" type="line"/>
      <point x="155" y="709"/>
      <point x="284" y="732"/>
      <point x="406" y="733" type="curve" smooth="yes"/>
      <point x="525" y="733"/>
      <point x="653" y="711"/>
      <point x="750" y="661" type="curve"/>
      <point x="750" y="493" type="line"/>
      <point x="524" y="493" type="line"/>
      <point x="524" y="561" type="line"/>
      <point x="489" y="571"/>
      <point x="448" y="577"/>
      <point x="405" y="577" type="curve" smooth="yes"/>
      <point x="363" y="577"/>
      <point x="323" y="572"/>
      <point x="286" y="561" type="curve"/>
      <point x="286" y="445" type="line"/>
      <point x="648" y="445" type="line"/>
      <point x="648" y="287" type="line"/>
      <point x="286" y="287" type="line"/>
      <point x="286" y="160" type="line"/>
      <point x="321" y="149"/>
      <point x="362" y="143"/>
      <point x="405" y="143" type="curve" smooth="yes"/>
      <point x="447" y="143"/>
      <point x="488" y="148"/>
      <point x="524" y="160" type="curve"/>
      <point x="524" y="227" type="line"/>
      <point x="750" y="227" type="line"/>
    </contour>
  </outline>
</glyph>
<glyph name="F" format="1">
  <advance width="778"/>
  <unicode hex="0046"/>
  <outline>
    <contour>
      <point x="740" y="479" type="line"/>
      <point x="514" y="479" type="line"/>
      <point x="514" y="554" type="line"/>
      <point x="480" y="566"/>
      <point x="443" y="570"/>
      <point x="400" y="570" type="curve" smooth="yes"/>
      <point x="358" y="570"/>
      <point x="322" y="566"/>
      <point x="286" y="554" type="curve"/>
      <point x="286" y="419" type="line"/>
      <point x="648" y="419" type="line"/>
      <point x="648" y="248" type="line"/>
      <point x="286" y="248" type="line"/>
      <point x="286" y="0" type="line"/>
      <point x="60" y="0" type="line"/>
      <point x="60" y="661" type="line"/>
      <point x="156" y="709"/>
      <point x="274" y="733"/>
      <point x="401" y="733" type="curve" smooth="yes"/>
      <point x="525" y="733"/>
      <point x="643" y="711"/>
      <point x="740" y="661" type="curve"/>
    </contour>
  </outline>
</glyph>
<glyph name="G" format="1">
  <advance width="820"/>
  <unicode hex="0047"/>
  <outline>
    <contour>
      <point x="760" y="67" type="line"/>
      <point x="665" y="13"/>
      <point x="537" y="-12"/>
      <point x="411" y="-13" type="curve" smooth="yes"/>
      <point x="286" y="-13"/>
      <point x="157" y="12"/>
      <point x="60" y="67" type="curve"/>
      <point x="60" y="653" type="line"/>
      <point x="156" y="707"/>
      <point x="284" y="733"/>
      <point x="411" y="733" type="curve" smooth="yes"/>
      <point x="534" y="733"/>
      <point x="663" y="709"/>
      <point x="760" y="653" type="curve"/>
      <point x="760" y="490" type="line"/>
      <point x="534" y="490" type="line"/>
      <point x="534" y="556" type="line"/>
      <point x="499" y="569"/>
      <point x="457" y="575"/>
      <point x="410" y="575" type="curve" smooth="yes"/>
      <point x="365" y="575"/>
      <point x="323" y="570"/>
      <point x="286" y="556" type="curve"/>
      <point x="286" y="164" type="line"/>
      <point x="321" y="151"/>
      <point x="367" y="144"/>
      <point x="414" y="144" type="curve" smooth="yes"/>
      <point x="461" y="144"/>
      <point x="507" y="150"/>
      <point x="542" y="164" type="curve"/>
      <point x="542" y="259" type="line"/>
      <point x="424" y="259" type="line"/>
      <point x="424" y="418" type="line"/>
      <point x="760" y="418" type="line"/>
    </contour>
  </outline>
</glyph>
<glyph name="H" format="1">
  <advance width="829"/>
  <unicode hex="0048"/>
  <outline>
    <contour>
      <point x="761" y="0" type="line"/>
      <point x="533" y="0" type="line"/>
      <point x="533" y="285" type="line"/>
      <point x="296" y="285" type="line"/>
      <point x="296" y="0" type="line"/>
      <point x="68" y="0" type="line"/>
      <point x="68" y="720" type="line"/>
      <point x="296" y="720" type="line"/>
      <point x="296" y="454" type="line"/>
      <point x="533" y="454" type="line"/>
      <point x="533" y="720" type="line"/>
      <point x="761" y="720" type="line"/>
    </contour>
  </outline>
</glyph>
<glyph name="I" format="1">
  <advance width="371"/>
  <unicode hex="0049"/>
  <outline>
    <contour>
      <point x="300" y="0" type="line"/>
      <point x="72" y="0" type="line"/>
      <point x="72" y="720" type="line"/>
      <point x="300" y="720" type="line"/>
    </contour>
  </outline>
</glyph>
<glyph name="J" format="1">
  <advance width="525"/>
  <unicode hex="004A"/>
  <outline>
    <contour>
      <point x="459" y="85" type="line"/>
      <point x="378" y="29"/>
      <point x="268" y="0"/>
      <point x="145" y="0" type="curve" smooth="yes"/>
      <point x="39" y="0" type="line"/>
      <point x="39" y="175" type="line"/>
      <point x="139" y="175" type="line" smooth="yes"/>
      <point x="178" y="175"/>
      <point x="209" y="182"/>
      <point x="233" y="194" type="curve"/>
      <point x="233" y="720" type="line"/>
      <point x="459" y="720" type="line"/>
    </contour>
  </outline>
</glyph>
<glyph name="K" format="1">
  <advance width="813"/>
  <unicode hex="004B"/>
  <outline>
    <contour>
      <point x="750" y="0" type="line"/>
      <point x="522" y="0" type="line"/>
      <point x="522" y="244" type="line"/>
      <point x="495" y="263"/>
      <point x="451" y="277"/>
      <point x="378" y="277" type="curve" smooth="yes"/>
      <point x="296" y="277" type="line"/>
      <point x="296" y="0" type="line"/>
      <point x="68" y="0" type="line"/>
      <point x="68" y="720" type="line"/>
      <point x="296" y="720" type="line"/>
      <point x="296" y="454" type="line"/>
      <point x="380" y="454" type="line" smooth="yes"/>
      <point x="446" y="454"/>
      <point x="490" y="466"/>
      <point x="520" y="486" type="curve"/>
      <point x="520" y="720" type="line"/>
      <point x="746" y="720" type="line"/>
      <point x="746" y="434" type="line"/>
      <point x="713" y="408"/>
      <point x="651" y="380"/>
      <point x="584" y="367" type="curve"/>
      <point x="652" y="352"/>
      <point x="712" y="328"/>
      <point x="750" y="295" type="curve"/>
    </contour>
  </outline>
</glyph>
<glyph name="L" format="1">
  <advance width="646"/>
  <unicode hex="004C"/>
  <outline>
    <contour>
      <point x="609" y="0" type="line"/>
      <point x="68" y="0" type="line"/>
      <point x="68" y="720" type="line"/>
      <point x="296" y="720" type="line"/>
      <point x="296" y="180" type="line"/>
      <point x="609" y="180" type="line"/>
    </contour>
  </outline>
</glyph>
<glyph name="M" format="1">
  <advance width="1096"/>
  <unicode hex="004D"/>
  <outline>
    <contour>
      <point x="1030" y="0" type="line"/>
      <point x="811" y="0" type="line"/>
      <point x="811" y="545" type="line"/>
      <point x="775" y="558"/>
      <point x="722" y="567"/>
      <point x="658" y="570" type="curve"/>
      <point x="658" y="0" type="line"/>
      <point x="438" y="0" type="line"/>
      <point x="438" y="570" type="line"/>
      <point x="375" y="567"/>
      <point x="322" y="559"/>
      <point x="285" y="545" type="curve"/>
      <point x="285" y="0" type="line"/>
      <point x="66" y="0" type="line"/>
      <point x="66" y="646" type="line"/>
      <point x="197" y="706"/>
      <point x="360" y="734"/>
      <point x="548" y="734" type="curve" smooth="yes"/>
      <point x="736" y="734"/>
      <point x="898" y="707"/>
      <point x="1030" y="646" type="curve"/>
    </contour>
  </outline>
</glyph>
<glyph name="N" format="1">
  <advance width="831"/>
  <unicode hex="004E"/>
  <outline>
    <contour>
      <point x="766" y="0" type="line"/>
      <point x="538" y="0" type="line"/>
      <point x="538" y="544" type="line"/>
      <point x="507" y="558"/>
      <point x="471" y="567"/>
      <point x="416" y="567" type="curve" smooth="yes"/>
      <point x="362" y="567"/>
      <point x="326" y="559"/>
      <point x="293" y="544" type="curve"/>
      <point x="293" y="0" type="line"/>
      <point x="66" y="0" type="line"/>
      <point x="66" y="644" type="line"/>
      <point x="152" y="699"/>
      <point x="282" y="733"/>
      <point x="416" y="733" type="curve" smooth="yes"/>
      <point x="548" y="733"/>
      <point x="678" y="700"/>
      <point x="766" y="644" type="curve"/>
    </contour>
  </outline>
</glyph>
<glyph name="O" format="1">
  <advance width="831"/>
  <unicode hex="004F"/>
  <outline>
    <contour>
      <point x="770" y="75" type="line"/>
      <point x="675" y="17"/>
      <point x="548" y="-13"/>
      <point x="416" y="-13" type="curve" smooth="yes"/>
      <point x="284" y="-14"/>
      <point x="157" y="17"/>
      <point x="60" y="75" type="curve"/>
      <point x="60" y="646" type="line"/>
      <point x="156" y="703"/>
      <point x="282" y="733"/>
      <point x="416" y="733" type="curve" smooth="yes"/>
      <point x="546" y="733"/>
      <point x="673" y="705"/>
      <point x="770" y="646" type="curve"/>
    </contour>
    <contour>
      <point x="544" y="177" type="curve"/>
      <point x="544" y="544" type="line"/>
      <point x="509" y="558"/>
      <point x="467" y="567"/>
      <point x="415" y="567" type="curve" smooth="yes"/>
      <point x="365" y="567"/>
      <point x="322" y="558"/>
      <point x="286" y="544" type="curve"/>
      <point x="286" y="177" type="line"/>
      <point x="321" y="162"/>
      <point x="364" y="153"/>
      <point x="415" y="153" type="curve" smooth="yes"/>
      <point x="466" y="153"/>
      <point x="508" y="162"/>
    </contour>
  </outline>
</glyph>
<glyph name="P" format="1">
  <advance width="762"/>
  <unicode hex="0050"/>
  <outline>
    <contour>
      <point x="725" y="326" type="line"/>
      <point x="641" y="264"/>
      <point x="532" y="230"/>
      <point x="377" y="230" type="curve" smooth="yes"/>
      <point x="296" y="230" type="line"/>
      <point x="296" y="0" type="line"/>
      <point x="68" y="0" type="line"/>
      <point x="68" y="720" type="line"/>
      <point x="377" y="720" type="line" smooth="yes"/>
      <point x="531" y="720"/>
      <point x="640" y="689"/>
      <point x="725" y="625" type="curve"/>
    </contour>
    <contour>
      <point x="499" y="405" type="curve"/>
      <point x="499" y="546" type="line"/>
      <point x="471" y="563"/>
      <point x="439" y="570"/>
      <point x="377" y="570" type="curve" smooth="yes"/>
      <point x="293" y="570" type="line"/>
      <point x="293" y="380" type="line"/>
      <point x="377" y="380" type="line" smooth="yes"/>
      <point x="437" y="380"/>
      <point x="469" y="387"/>
    </contour>
  </outline>
</glyph>
<glyph name="Q" format="1">
  <advance width="831"/>
  <unicode hex="0051"/>
  <outline>
    <contour>
      <point x="770" y="75" type="line"/>
      <point x="703" y="34"/>
      <point x="619" y="7"/>
      <point x="529" y="-5" type="curve"/>
      <point x="529" y="-114" type="line"/>
      <point x="301" y="-114" type="line"/>
      <point x="301" y="-5" type="line"/>
      <point x="212" y="7"/>
      <point x="128" y="34"/>
      <point x="60" y="75" type="curve"/>
      <point x="60" y="646" type="line"/>
      <point x="156" y="703"/>
      <point x="282" y="733"/>
      <point x="416" y="733" type="curve" smooth="yes"/>
      <point x="546" y="733"/>
      <point x="673" y="705"/>
      <point x="770" y="646" type="curve"/>
    </contour>
    <contour>
      <point x="544" y="177" type="curve"/>
      <point x="544" y="544" type="line"/>
      <point x="509" y="558"/>
      <point x="467" y="567"/>
      <point x="415" y="567" type="curve" smooth="yes"/>
      <point x="365" y="567"/>
      <point x="322" y="558"/>
      <point x="286" y="544" type="curve"/>
      <point x="286" y="177" type="line"/>
      <point x="321" y="162"/>
      <point x="364" y="153"/>
      <point x="415" y="153" type="curve" smooth="yes"/>
      <point x="466" y="153"/>
      <point x="508" y="162"/>
    </contour>
  </outline>
</glyph>
<glyph name="R" format="1">
  <advance width="798"/>
  <unicode hex="0052"/>
  <outline>
    <contour>
      <point x="740" y="0" type="line"/>
      <point x="512" y="0" type="line"/>
      <point x="512" y="230" type="line"/>
      <point x="482" y="245"/>
      <point x="446" y="252"/>
      <point x="388" y="252" type="curve" smooth="yes"/>
      <point x="296" y="252" type="line"/>
      <point x="296" y="0" type="line"/>
      <point x="68" y="0" type="line"/>
      <point x="68" y="720" type="line"/>
      <point x="394" y="720" type="line" smooth="yes"/>
      <point x="548" y="720"/>
      <point x="652" y="693"/>
      <point x="736" y="631" type="curve"/>
      <point x="736" y="387" type="line"/>
      <point x="702" y="364"/>
      <point x="654" y="349"/>
      <point x="594" y="337" type="curve"/>
      <point x="652" y="327"/>
      <point x="707" y="308"/>
      <point x="740" y="285" type="curve"/>
    </contour>
    <contour>
      <point x="512" y="427" type="curve"/>
      <point x="512" y="558" type="line"/>
      <point x="483" y="576"/>
      <point x="455" y="579"/>
      <point x="395" y="579" type="curve" smooth="yes"/>
      <point x="293" y="579" type="line"/>
      <point x="293" y="406" type="line"/>
      <point x="392" y="406" type="line" smooth="yes"/>
      <point x="452" y="406"/>
      <point x="485" y="413"/>
    </contour>
  </outline>
</glyph>
<glyph name="S" format="1">
  <advance width="800"/>
  <unicode hex="0053"/>
  <outline>
    <contour>
      <point x="740" y="62" type="line"/>
      <point x="644" y="12"/>
      <point x="520" y="-14"/>
      <point x="400" y="-13" type="curve" smooth="yes"/>
      <point x="280" y="-13"/>
      <point x="157" y="11"/>
      <point x="60" y="62" type="curve"/>
      <point x="60" y="227" type="line"/>
      <point x="286" y="227" type="line"/>
      <point x="286" y="160" type="line"/>
      <point x="321" y="149"/>
      <point x="361" y="143"/>
      <point x="400" y="143" type="curve" smooth="yes"/>
      <point x="439" y="143"/>
      <point x="478" y="148"/>
      <point x="514" y="160" type="curve"/>
      <point x="514" y="251" type="line"/>
      <point x="61" y="337" type="line"/>
      <point x="61" y="658" type="line"/>
      <point x="157" y="709"/>
      <point x="276" y="733"/>
      <point x="401" y="733" type="curve" smooth="yes"/>
      <point x="524" y="733"/>
      <point x="641" y="710"/>
      <point x="739" y="658" type="curve"/>
      <point x="739" y="493" type="line"/>
      <point x="513" y="493" type="line"/>
      <point x="513" y="560" type="line"/>
      <point x="478" y="572"/>
      <point x="444" y="576"/>
      <point x="400" y="576" type="curve" smooth="yes"/>
      <point x="359" y="576"/>
      <point x="325" y="572"/>
      <point x="287" y="560" type="curve"/>
      <point x="287" y="463" type="line"/>
      <point x="740" y="377" type="line"/>
    </contour>
  </outline>
</glyph>
<glyph name="T" format="1">
  <advance width="714"/>
  <unicode hex="0054"/>
  <outline>
    <contour>
      <point x="675" y="540" type="line"/>
      <point x="471" y="540" type="line"/>
      <point x="471" y="0" type="line"/>
      <point x="243" y="0" type="line"/>
      <point x="243" y="540" type="line"/>
      <point x="39" y="540" type="line"/>
      <point x="39" y="720" type="line"/>
      <point x="675" y="720" type="line"/>
    </contour>
  </outline>
</glyph>
<glyph name="U" format="1">
  <advance width="831"/>
  <unicode hex="0055"/>
  <outline>
    <contour>
      <point x="766" y="76" type="line"/>
      <point x="678" y="21"/>
      <point x="550" y="-13"/>
      <point x="416" y="-13" type="curve" smooth="yes"/>
      <point x="283" y="-13"/>
      <point x="153" y="21"/>
      <point x="66" y="76" type="curve"/>
      <point x="66" y="720" type="line"/>
      <point x="293" y="720" type="line"/>
      <point x="293" y="176" type="line"/>
      <point x="325" y="161"/>
      <point x="360" y="153"/>
      <point x="416" y="153" type="curve" smooth="yes"/>
      <point x="470" y="153"/>
      <point x="507" y="161"/>
      <point x="538" y="176" type="curve"/>
      <point x="538" y="720" type="line"/>
      <point x="766" y="720" type="line"/>
    </contour>
  </outline>
</glyph>
<glyph name="V" format="1">
  <advance width="823"/>
  <unicode hex="0056"/>
  <outline>
    <contour>
      <point x="765" y="490" type="line" smooth="yes"/>
      <point x="765" y="253"/>
      <point x="653" y="106"/>
      <point x="530" y="-7" type="curve"/>
      <point x="300" y="-7" type="line"/>
      <point x="178" y="106"/>
      <point x="65" y="252"/>
      <point x="65" y="490" type="curve" smooth="yes"/>
      <point x="65" y="720" type="line"/>
      <point x="292" y="720" type="line"/>
      <point x="292" y="492" type="line" smooth="yes"/>
      <point x="292" y="295"/>
      <point x="358" y="209"/>
      <point x="415" y="138" type="curve"/>
      <point x="472" y="208"/>
      <point x="537" y="293"/>
      <point x="537" y="492" type="curve" smooth="yes"/>
      <point x="537" y="720" type="line"/>
      <point x="765" y="720" type="line"/>
    </contour>
  </outline>
</glyph>
<glyph name="W" format="1">
  <advance width="1096"/>
  <unicode hex="0057"/>
  <outline>
    <contour>
      <point x="1030" y="75" type="line"/>
      <point x="898" y="15"/>
      <point x="737" y="-14"/>
      <point x="548" y="-14" type="curve" smooth="yes"/>
      <point x="360" y="-14"/>
      <point x="198" y="13"/>
      <point x="66" y="75" type="curve"/>
      <point x="66" y="720" type="line"/>
      <point x="285" y="720" type="line"/>
      <point x="285" y="176" type="line"/>
      <point x="321" y="162"/>
      <point x="374" y="153"/>
      <point x="438" y="151" type="curve"/>
      <point x="438" y="720" type="line"/>
      <point x="658" y="720" type="line"/>
      <point x="658" y="151" type="line"/>
      <point x="721" y="153"/>
      <point x="774" y="161"/>
      <point x="811" y="176" type="curve"/>
      <point x="811" y="720" type="line"/>
      <point x="1030" y="720" type="line"/>
    </contour>
  </outline>
</glyph>
<glyph name="X" format="1">
  <advance width="794"/>
  <unicode hex="0058"/>
  <outline>
    <contour>
      <point x="730" y="0" type="line"/>
      <point x="502" y="0" type="line"/>
      <point x="502" y="253" type="line"/>
      <point x="476" y="268"/>
      <point x="436" y="276"/>
      <point x="397" y="276" type="curve" smooth="yes"/>
      <point x="358" y="276"/>
      <point x="318" y="268"/>
      <point x="291" y="253" type="curve"/>
      <point x="291" y="0" type="line"/>
      <point x="63" y="0" type="line"/>
      <point x="63" y="308" type="line"/>
      <point x="96" y="334"/>
      <point x="156" y="359"/>
      <point x="216" y="369" type="curve"/>
      <point x="156" y="382"/>
      <point x="103" y="403"/>
      <point x="67" y="429" type="curve"/>
      <point x="67" y="720" type="line"/>
      <point x="293" y="720" type="line"/>
      <point x="293" y="485" type="line"/>
      <point x="319" y="470"/>
      <point x="358" y="461"/>
      <point x="397" y="461" type="curve" smooth="yes"/>
      <point x="435" y="461"/>
      <point x="475" y="470"/>
      <point x="500" y="485" type="curve"/>
      <point x="500" y="720" type="line"/>
      <point x="727" y="720" type="line"/>
      <point x="727" y="429" type="line"/>
      <point x="691" y="403"/>
      <point x="638" y="382"/>
      <point x="577" y="369" type="curve"/>
      <point x="638" y="359"/>
      <point x="696" y="334"/>
      <point x="730" y="308" type="curve"/>
    </contour>
  </outline>
</glyph>
<glyph name="Y" format="1">
  <advance width="795"/>
  <unicode hex="0059"/>
  <outline>
    <contour>
      <point x="732" y="305" type="line"/>
      <point x="673" y="262"/>
      <point x="591" y="236"/>
      <point x="512" y="226" type="curve"/>
      <point x="512" y="0" type="line"/>
      <point x="285" y="0" type="line"/>
      <point x="285" y="226" type="line"/>
      <point x="206" y="236"/>
      <point x="122" y="262"/>
      <point x="62" y="305" type="curve"/>
      <point x="62" y="720" type="line"/>
      <point x="290" y="720" type="line"/>
      <point x="290" y="401" type="line"/>
      <point x="315" y="387"/>
      <point x="355" y="381"/>
      <point x="398" y="381" type="curve" smooth="yes"/>
      <point x="440" y="381"/>
      <point x="479" y="387"/>
      <point x="505" y="401" type="curve"/>
      <point x="505" y="720" type="line"/>
      <point x="732" y="720" type="line"/>
    </contour>
  </outline>
</glyph>
<glyph name="Z" format="1">
  <advance width="737"/>
  <unicode hex="005A"/>
  <outline>
    <contour>
      <point x="681" y="0" type="line"/>
      <point x="53" y="0" type="line"/>
      <point x="53" y="142" type="line"/>
      <point x="385" y="552" type="line"/>
      <point x="66" y="552" type="line"/>
      <point x="66" y="720" type="line"/>
      <point x="677" y="720" type="line"/>
      <point x="677" y="577" type="line"/>
      <point x="349" y="168" type="line"/>
      <point x="681" y="168" type="line"/>
    </contour>
  </outline>
</glyph>
<glyph name="bracketleft" format="1">
  <advance width="451"/>
  <unicode hex="005B"/>
  <outline>
    <contour>
      <point x="400" y="0" type="line"/>
      <point x="68" y="0" type="line"/>
      <point x="68" y="720" type="line"/>
      <point x="400" y="720" type="line"/>
      <point x="400" y="560" type="line"/>
      <point x="282" y="560" type="line"/>
      <point x="282" y="160" type="line"/>
      <point x="400" y="160" type="line"/>
    </contour>
  </outline>
</glyph>
<glyph name="backslash" format="1">
  <advance width="533"/>
  <unicode hex="005C"/>
  <outline>
    <contour>
      <point x="498" y="0" type="line"/>
      <point x="269" y="0" type="line"/>
      <point x="34" y="720" type="line"/>
      <point x="264" y="720" type="line"/>
    </contour>
  </outline>
</glyph>
<glyph name="bracketright" format="1">
  <advance width="451"/>
  <unicode hex="005D"/>
  <outline>
    <contour>
      <point x="383" y="0" type="line"/>
      <point x="51" y="0" type="line"/>
      <point x="51" y="160" type="line"/>
      <point x="169" y="160" type="line"/>
      <point x="169" y="560" type="line"/>
      <point x="51" y="560" type="line"/>
      <point x="51" y="720" type="line"/>
      <point x="383" y="720" type="line"/>
    </contour>
  </outline>
</glyph>
<glyph name="asciicircum" format="1">
  <advance width="656"/>
  <unicode hex="005E"/>
  <outline>
    <contour>
      <point x="621" y="350" type="line"/>
      <point x="422" y="350" type="line"/>
      <point x="328" y="589" type="line"/>
      <point x="233" y="350" type="line"/>
      <point x="34" y="350" type="line"/>
      <point x="206" y="727" type="line"/>
      <point x="450" y="727" type="line"/>
    </contour>
  </outline>
</glyph>
<glyph name="underscore" format="1">
  <advance width="615"/>
  <unicode hex="005F"/>
  <outline>
    <contour>
      <point x="615" y="-158" type="line"/>
      <point x="0" y="-158" type="line"/>
      <point x="0" y="-37" type="line"/>
      <point x="615" y="-37" type="line"/>
    </contour>
  </outline>
</glyph>
<glyph name="grave" format="1">
  <advance width="575"/>
  <unicode hex="0060"/>
  <outline>
    <contour>
      <point x="434" y="540" type="line"/>
      <point x="263" y="540" type="line"/>
      <point x="142" y="720" type="line"/>
      <point x="323" y="720" type="line"/>
    </contour>
  </outline>
</glyph>
<glyph name="a" format="1">
  <advance width="599"/>
  <unicode hex="0061"/>
  <outline>
    <contour>
      <point x="554" y="45" type="line"/>
      <point x="484" y="7"/>
      <point x="407" y="-13"/>
      <point x="299" y="-13" type="curve" smooth="yes"/>
      <point x="193" y="-13"/>
      <point x="114" y="6"/>
      <point x="43" y="45" type="curve"/>
      <point x="43" y="258" type="line"/>
      <point x="102" y="283"/>
      <point x="174" y="297"/>
      <point x="272" y="297" type="curve" smooth="yes"/>
      <point x="310" y="297"/>
      <point x="342" y="293"/>
      <point x="368" y="285" type="curve"/>
      <point x="368" y="368" type="line"/>
      <point x="349" y="376"/>
      <point x="329" y="378"/>
      <point x="300" y="378" type="curve" smooth="yes"/>
      <point x="272" y="378"/>
      <point x="253" y="376"/>
      <point x="233" y="370" type="curve"/>
      <point x="233" y="326" type="line"/>
      <point x="46" y="326" type="line"/>
      <point x="46" y="438" type="line"/>
      <point x="115" y="475"/>
      <point x="198" y="493"/>
      <point x="300" y="493" type="curve" smooth="yes"/>
      <point x="399" y="493"/>
      <point x="483" y="474"/>
      <point x="554" y="435" type="curve"/>
    </contour>
    <contour>
      <point x="368" y="113" type="curve"/>
      <point x="368" y="179" type="line"/>
      <point x="352" y="183"/>
      <point x="327" y="188"/>
      <point x="299" y="188" type="curve" smooth="yes"/>
      <point x="269" y="189"/>
      <point x="248" y="185"/>
      <point x="228" y="177" type="curve"/>
      <point x="228" y="113" type="line"/>
      <point x="244" y="106"/>
      <point x="267" y="103"/>
      <point x="299" y="103" type="curve" smooth="yes"/>
      <point x="329" y="103"/>
      <point x="351" y="106"/>
    </contour>
  </outline>
</glyph>
<glyph name="b" format="1">
  <advance width="621"/>
  <unicode hex="0062"/>
  <outline>
    <contour>
      <point x="575" y="55" type="line"/>
      <point x="511" y="16"/>
      <point x="425" y="-13"/>
      <point x="313" y="-13" type="curve" smooth="yes"/>
      <point x="200" y="-13"/>
      <point x="114" y="16"/>
      <point x="50" y="55" type="curve"/>
      <point x="50" y="720" type="line"/>
      <point x="238" y="720" type="line"/>
      <point x="238" y="471" type="line"/>
      <point x="267" y="482"/>
      <point x="303" y="490"/>
      <point x="348" y="490" type="curve" smooth="yes"/>
      <point x="434" y="490"/>
      <point x="514" y="467"/>
      <point x="575" y="422" type="curve"/>
    </contour>
    <contour>
      <point x="388" y="131" type="curve"/>
      <point x="388" y="338" type="line"/>
      <point x="371" y="347"/>
      <point x="346" y="353"/>
      <point x="313" y="353" type="curve" smooth="yes"/>
      <point x="278" y="353"/>
      <point x="255" y="347"/>
      <point x="237" y="339" type="curve"/>
      <point x="237" y="131" type="line"/>
      <point x="255" y="122"/>
      <point x="280" y="116"/>
      <point x="313" y="116" type="curve" smooth="yes"/>
      <point x="347" y="116"/>
      <point x="372" y="123"/>
    </contour>
  </outline>
</glyph>
<glyph name="c" format="1">
  <advance width="604"/>
  <unicode hex="0063"/>
  <outline>
    <contour>
      <point x="561" y="49" type="line"/>
      <point x="492" y="9"/>
      <point x="406" y="-13"/>
      <point x="304" y="-13" type="curve" smooth="yes"/>
      <point x="204" y="-13"/>
      <point x="116" y="7"/>
      <point x="46" y="49" type="curve"/>
      <point x="46" y="432" type="line"/>
      <point x="115" y="472"/>
      <point x="201" y="493"/>
      <point x="304" y="493" type="curve" smooth="yes"/>
      <point x="403" y="493"/>
      <point x="490" y="473"/>
      <point x="561" y="432" type="curve"/>
      <point x="561" y="283" type="line"/>
      <point x="374" y="283" type="line"/>
      <point x="374" y="346" type="line"/>
      <point x="355" y="353"/>
      <point x="332" y="356"/>
      <point x="304" y="356" type="curve" smooth="yes"/>
      <point x="276" y="356"/>
      <point x="252" y="354"/>
      <point x="233" y="346" type="curve"/>
      <point x="233" y="134" type="line"/>
      <point x="251" y="126"/>
      <point x="275" y="123"/>
      <point x="304" y="123" type="curve" smooth="yes"/>
      <point x="331" y="123"/>
      <point x="354" y="126"/>
      <point x="374" y="134" type="curve"/>
      <point x="374" y="198" type="line"/>
      <point x="561" y="198" type="line"/>
    </contour>
  </outline>
</glyph>
<glyph name="d" format="1">
  <advance width="621"/>
  <unicode hex="0064"/>
  <outline>
    <contour>
      <point x="571" y="55" type="line"/>
      <point x="507" y="16"/>
      <point x="421" y="-13"/>
      <point x="309" y="-13" type="curve" smooth="yes"/>
      <point x="196" y="-13"/>
      <point x="110" y="16"/>
      <point x="46" y="55" type="curve"/>
      <point x="46" y="422" type="line"/>
      <point x="107" y="467"/>
      <point x="186" y="490"/>
      <point x="273" y="490" type="curve" smooth="yes"/>
      <point x="318" y="490"/>
      <point x="354" y="482"/>
      <point x="383" y="471" type="curve"/>
      <point x="383" y="720" type="line"/>
      <point x="571" y="720" type="line"/>
    </contour>
    <contour>
      <point x="384" y="140" type="curve"/>
      <point x="384" y="339" type="line"/>
      <point x="366" y="347"/>
      <point x="342" y="353"/>
      <point x="309" y="353" type="curve" smooth="yes"/>
      <point x="275" y="353"/>
      <point x="250" y="347"/>
      <point x="233" y="338" type="curve"/>
      <point x="233" y="140" type="line"/>
      <point x="249" y="132"/>
      <point x="274" y="125"/>
      <point x="309" y="125" type="curve" smooth="yes"/>
      <point x="341" y="125"/>
      <point x="366" y="131"/>
    </contour>
  </outline>
</glyph>
<glyph name="e" format="1">
  <advance width="601"/>
  <unicode hex="0065"/>
  <outline>
    <contour>
      <point x="556" y="49" type="line"/>
      <point x="487" y="9"/>
      <point x="403" y="-13"/>
      <point x="301" y="-13" type="curve" smooth="yes"/>
      <point x="201" y="-13"/>
      <point x="116" y="7"/>
      <point x="46" y="49" type="curve"/>
      <point x="46" y="429" type="line"/>
      <point x="113" y="470"/>
      <point x="196" y="493"/>
      <point x="301" y="493" type="curve" smooth="yes"/>
      <point x="404" y="493"/>
      <point x="487" y="471"/>
      <point x="556" y="429" type="curve"/>
      <point x="556" y="193" type="line"/>
      <point x="231" y="193" type="line"/>
      <point x="231" y="117" type="line"/>
      <point x="250" y="109"/>
      <point x="273" y="106"/>
      <point x="301" y="106" type="curve" smooth="yes"/>
      <point x="328" y="106"/>
      <point x="349" y="108"/>
      <point x="369" y="117" type="curve"/>
      <point x="369" y="159" type="line"/>
      <point x="556" y="159" type="line"/>
    </contour>
    <contour>
      <point x="369" y="292" type="line"/>
      <point x="369" y="364" type="line"/>
      <point x="352" y="372"/>
      <point x="332" y="376"/>
      <point x="301" y="376" type="curve" smooth="yes"/>
      <point x="270" y="376"/>
      <point x="250" y="372"/>
      <point x="231" y="364" type="curve"/>
      <point x="231" y="292" type="line"/>
    </contour>
  </outline>
</glyph>
<glyph name="g" format="1">
  <advance width="621"/>
  <unicode hex="0067"/>
  <outline>
    <contour>
      <point x="571" y="-127" type="line"/>
      <point x="507" y="-162"/>
      <point x="421" y="-186"/>
      <point x="309" y="-186" type="curve" smooth="yes"/>
      <point x="199" y="-186"/>
      <point x="110" y="-165"/>
      <point x="46" y="-129" type="curve"/>
      <point x="46" y="-20" type="line"/>
      <point x="233" y="-20" type="line"/>
      <point x="233" y="-64" type="line"/>
      <point x="250" y="-70"/>
      <point x="275" y="-73"/>
      <point x="309" y="-73" type="curve" smooth="yes"/>
      <point x="342" y="-73"/>
      <point x="365" y="-69"/>
      <point x="383" y="-62" type="curve"/>
      <point x="383" y="17" type="line"/>
      <point x="354" y="7"/>
      <point x="318" y="-1"/>
      <point x="273" y="-1" type="curve" smooth="yes"/>
      <point x="186" y="-1"/>
      <point x="107" y="19"/>
      <point x="46" y="56" type="curve"/>
      <point x="46" y="425" type="line"/>
      <point x="110" y="465"/>
      <point x="196" y="493"/>
      <point x="309" y="493" type="curve" smooth="yes"/>
      <point x="421" y="493"/>
      <point x="507" y="465"/>
      <point x="571" y="425" type="curve"/>
    </contour>
    <contour>
      <point x="384" y="140" type="curve"/>
      <point x="384" y="340" type="line"/>
      <point x="366" y="349"/>
      <point x="341" y="355"/>
      <point x="309" y="355" type="curve" smooth="yes"/>
      <point x="274" y="355"/>
      <point x="249" y="349"/>
      <point x="233" y="340" type="curve"/>
      <point x="233" y="141" type="line"/>
      <point x="250" y="133"/>
      <point x="275" y="127"/>
      <point x="309" y="127" type="curve" smooth="yes"/>
      <point x="342" y="127"/>
      <point x="366" y="133"/>
    </contour>
  </outline>
</glyph>
<glyph name="h" format="1">
  <advance width="620"/>
  <unicode hex="0068"/>
  <outline>
    <contour>
      <point x="570" y="0" type="line"/>
      <point x="382" y="0" type="line"/>
      <point x="382" y="332" type="line"/>
      <point x="364" y="341"/>
      <point x="338" y="344"/>
      <point x="310" y="344" type="curve" smooth="yes"/>
      <point x="283" y="344"/>
      <point x="257" y="341"/>
      <point x="238" y="332" type="curve"/>
      <point x="238" y="0" type="line"/>
      <point x="50" y="0" type="line"/>
      <point x="50" y="720" type="line"/>
      <point x="238" y="720" type="line"/>
      <point x="238" y="472" type="line"/>
      <point x="268" y="483"/>
      <point x="302" y="490"/>
      <point x="348" y="490" type="curve" smooth="yes"/>
      <point x="432" y="490"/>
      <point x="508" y="470"/>
      <point x="570" y="426" type="curve"/>
    </contour>
  </outline>
</glyph>
<glyph name="i" format="1">
  <advance width="301"/>
  <unicode hex="0069"/>
  <outline>
    <contour>
      <point x="248" y="558" type="line"/>
      <point x="54" y="558" type="line"/>
      <point x="54" y="720" type="line"/>
      <point x="248" y="720" type="line"/>
    </contour>
    <contour>
      <point x="245" y="0" type="line"/>
      <point x="56" y="0" type="line"/>
      <point x="56" y="480" type="line"/>
      <point x="245" y="480" type="line"/>
    </contour>
  </outline>
</glyph>
<glyph name="j" format="1">
  <advance width="301"/>
  <unicode hex="006A"/>
  <outline>
    <contour>
      <point x="248" y="558" type="line"/>
      <point x="54" y="558" type="line"/>
      <point x="54" y="720" type="line"/>
      <point x="248" y="720" type="line"/>
    </contour>
    <contour>
      <point x="245" y="-120" type="line"/>
      <point x="184" y="-161"/>
      <point x="112" y="-180"/>
      <point x="29" y="-180" type="curve" smooth="yes"/>
      <point x="-34" y="-180" type="line"/>
      <point x="-34" y="-48" type="line"/>
      <point x="-4" y="-48" type="line" smooth="yes"/>
      <point x="19" y="-48"/>
      <point x="42" y="-44"/>
      <point x="56" y="-37" type="curve"/>
      <point x="56" y="480" type="line"/>
      <point x="245" y="480" type="line"/>
    </contour>
  </outline>
</glyph>
<glyph name="k" format="1">
  <advance width="599"/>
  <unicode hex="006B"/>
  <outline>
    <contour>
      <point x="553" y="0" type="line"/>
      <point x="365" y="0" type="line"/>
      <point x="365" y="137" type="line"/>
      <point x="347" y="153"/>
      <point x="311" y="166"/>
      <point x="262" y="166" type="curve" smooth="yes"/>
      <point x="238" y="166" type="line"/>
      <point x="238" y="0" type="line"/>
      <point x="50" y="0" type="line"/>
      <point x="50" y="720" type="line"/>
      <point x="238" y="720" type="line"/>
      <point x="238" y="322" type="line"/>
      <point x="262" y="322" type="line" smooth="yes"/>
      <point x="303" y="322"/>
      <point x="337" y="332"/>
      <point x="357" y="350" type="curve"/>
      <point x="357" y="480" type="line"/>
      <point x="545" y="480" type="line"/>
      <point x="545" y="307" type="line"/>
      <point x="518" y="282"/>
      <point x="467" y="258"/>
      <point x="408" y="244" type="curve"/>
      <point x="468" y="232"/>
      <point x="519" y="212"/>
      <point x="553" y="180" type="curve"/>
    </contour>
  </outline>
</glyph>
<glyph name="l" format="1">
  <advance width="301"/>
  <unicode hex="006C"/>
  <outline>
    <contour>
      <point x="245" y="0" type="line"/>
      <point x="56" y="0" type="line"/>
      <point x="56" y="720" type="line"/>
      <point x="245" y="720" type="line"/>
    </contour>
  </outline>
</glyph>
<glyph name="m" format="1">
  <advance width="868"/>
  <unicode hex="006D"/>
  <outline>
    <contour>
      <point x="818" y="0" type="line"/>
      <point x="636" y="0" type="line"/>
      <point x="636" y="337" type="line"/>
      <point x="608" y="345"/>
      <point x="578" y="349"/>
      <point x="525" y="351" type="curve"/>
      <point x="525" y="0" type="line"/>
      <point x="343" y="0" type="line"/>
      <point x="343" y="351" type="line"/>
      <point x="291" y="349"/>
      <point x="261" y="345"/>
      <point x="233" y="337" type="curve"/>
      <point x="233" y="0" type="line"/>
      <point x="50" y="0" type="line"/>
      <point x="50" y="432" type="line"/>
      <point x="154" y="474"/>
      <point x="298" y="493"/>
      <point x="434" y="493" type="curve" smooth="yes"/>
      <point x="569" y="493"/>
      <point x="712" y="474"/>
      <point x="818" y="432" type="curve"/>
    </contour>
  </outline>
</glyph>
<glyph name="n" format="1">
  <advance width="620"/>
  <unicode hex="006E"/>
  <outline>
    <contour>
      <point x="570" y="0" type="line"/>
      <point x="382" y="0" type="line"/>
      <point x="382" y="332" type="line"/>
      <point x="364" y="341"/>
      <point x="338" y="344"/>
      <point x="310" y="344" type="curve" smooth="yes"/>
      <point x="283" y="344"/>
      <point x="258" y="341"/>
      <point x="238" y="332" type="curve"/>
      <point x="238" y="0" type="line"/>
      <point x="50" y="0" type="line"/>
      <point x="50" y="432" type="line"/>
      <point x="119" y="472"/>
      <point x="208" y="493"/>
      <point x="310" y="493" type="curve" smooth="yes"/>
      <point x="410" y="493"/>
      <point x="499" y="473"/>
      <point x="570" y="432" type="curve"/>
    </contour>
  </outline>
</glyph>
<glyph name="o" format="1">
  <advance width="616"/>
  <unicode hex="006F"/>
  <outline>
    <contour>
      <point x="571" y="56" type="line"/>
      <point x="508" y="17"/>
      <point x="422" y="-13"/>
      <point x="309" y="-13" type="curve" smooth="yes"/>
      <point x="197" y="-13"/>
      <point x="110" y="15"/>
      <point x="46" y="56" type="curve"/>
      <point x="46" y="425" type="line"/>
      <point x="109" y="464"/>
      <point x="195" y="493"/>
      <point x="309" y="493" type="curve" smooth="yes"/>
      <point x="420" y="493"/>
      <point x="506" y="466"/>
      <point x="571" y="425" type="curve"/>
    </contour>
    <contour>
      <point x="384" y="140" type="curve"/>
      <point x="384" y="341" type="line"/>
      <point x="367" y="349"/>
      <point x="342" y="355"/>
      <point x="309" y="355" type="curve" smooth="yes"/>
      <point x="276" y="355"/>
      <point x="250" y="349"/>
      <point x="233" y="341" type="curve"/>
      <point x="233" y="140" type="line"/>
      <point x="249" y="132"/>
      <point x="274" y="125"/>
      <point x="309" y="125" type="curve" smooth="yes"/>
      <point x="341" y="125"/>
      <point x="366" y="131"/>
    </contour>
  </outline>
</glyph>
<glyph name="p" format="1">
  <advance width="621"/>
  <unicode hex="0070"/>
  <outline>
    <contour>
      <point x="575" y="58" type="line"/>
      <point x="514" y="13"/>
      <point x="434" y="-10"/>
      <point x="348" y="-10" type="curve" smooth="yes"/>
      <point x="303" y="-10"/>
      <point x="267" y="-2"/>
      <point x="238" y="9" type="curve"/>
      <point x="238" y="-175" type="line"/>
      <point x="50" y="-175" type="line"/>
      <point x="50" y="425" type="line"/>
      <point x="114" y="465"/>
      <point x="200" y="493"/>
      <point x="313" y="493" type="curve" smooth="yes"/>
      <point x="425" y="493"/>
      <point x="511" y="465"/>
      <point x="575" y="425" type="curve"/>
    </contour>
    <contour>
      <point x="388" y="141" type="curve"/>
      <point x="388" y="340" type="line"/>
      <point x="372" y="349"/>
      <point x="347" y="355"/>
      <point x="313" y="355" type="curve" smooth="yes"/>
      <point x="280" y="355"/>
      <point x="255" y="349"/>
      <point x="237" y="340" type="curve"/>
      <point x="237" y="140" type="line"/>
      <point x="255" y="133"/>
      <point x="278" y="127"/>
      <point x="313" y="127" type="curve" smooth="yes"/>
      <point x="346" y="127"/>
      <point x="371" y="133"/>
    </contour>
  </outline>
</glyph>
<glyph name="q" format="1">
  <advance width="621"/>
  <unicode hex="0071"/>
  <outline>
    <contour>
      <point x="571" y="-175" type="line"/>
      <point x="383" y="-175" type="line"/>
      <point x="383" y="9" type="line"/>
      <point x="354" y="-2"/>
      <point x="318" y="-10"/>
      <point x="273" y="-10" type="curve" smooth="yes"/>
      <point x="186" y="-10"/>
      <point x="107" y="13"/>
      <point x="46" y="58" type="curve"/>
      <point x="46" y="425" type="line"/>
      <point x="110" y="465"/>
      <point x="196" y="493"/>
      <point x="309" y="493" type="curve" smooth="yes"/>
      <point x="421" y="493"/>
      <point x="507" y="465"/>
      <point x="571" y="425" type="curve"/>
    </contour>
    <contour>
      <point x="384" y="140" type="curve"/>
      <point x="384" y="340" type="line"/>
      <point x="366" y="349"/>
      <point x="341" y="355"/>
      <point x="309" y="355" type="curve" smooth="yes"/>
      <point x="274" y="355"/>
      <point x="249" y="349"/>
      <point x="233" y="340" type="curve"/>
      <point x="233" y="141" type="line"/>
      <point x="250" y="133"/>
      <point x="275" y="127"/>
      <point x="309" y="127" type="curve" smooth="yes"/>
      <point x="342" y="127"/>
      <point x="366" y="133"/>
    </contour>
  </outline>
</glyph>
<glyph name="r" format="1">
  <advance width="407"/>
  <unicode hex="0072"/>
  <outline>
    <contour>
      <point x="385" y="336" type="line"/>
      <point x="309" y="336" type="line" smooth="yes"/>
      <point x="283" y="336"/>
      <point x="256" y="331"/>
      <point x="239" y="325" type="curve"/>
      <point x="239" y="0" type="line"/>
      <point x="50" y="0" type="line"/>
      <point x="50" y="431" type="line"/>
      <point x="116" y="467"/>
      <point x="190" y="486"/>
      <point x="276" y="486" type="curve" smooth="yes"/>
      <point x="385" y="486" type="line"/>
    </contour>
  </outline>
</glyph>
<glyph name="s" format="1">
  <advance width="597"/>
  <unicode hex="0073"/>
  <outline>
    <contour>
      <point x="551" y="45" type="line"/>
      <point x="481" y="6"/>
      <point x="398" y="-13"/>
      <point x="299" y="-13" type="curve" smooth="yes"/>
      <point x="196" y="-13"/>
      <point x="115" y="8"/>
      <point x="46" y="45" type="curve"/>
      <point x="46" y="160" type="line"/>
      <point x="230" y="160" type="line"/>
      <point x="230" y="115" type="line"/>
      <point x="248" y="109"/>
      <point x="271" y="106"/>
      <point x="299" y="106" type="curve" smooth="yes"/>
      <point x="328" y="106"/>
      <point x="347" y="109"/>
      <point x="366" y="116" type="curve"/>
      <point x="366" y="166" type="line"/>
      <point x="47" y="219" type="line"/>
      <point x="47" y="435" type="line"/>
      <point x="116" y="473"/>
      <point x="197" y="493"/>
      <point x="299" y="493" type="curve" smooth="yes"/>
      <point x="399" y="493"/>
      <point x="480" y="474"/>
      <point x="550" y="435" type="curve"/>
      <point x="550" y="320" type="line"/>
      <point x="365" y="320" type="line"/>
      <point x="365" y="366" type="line"/>
      <point x="346" y="372"/>
      <point x="327" y="374"/>
      <point x="299" y="374" type="curve" smooth="yes"/>
      <point x="270" y="374"/>
      <point x="252" y="372"/>
      <point x="231" y="365" type="curve"/>
      <point x="231" y="315" type="line"/>
      <point x="551" y="261" type="line"/>
    </contour>
  </outline>
</glyph>
<glyph name="t" format="1">
  <advance width="412"/>
  <unicode hex="0074"/>
  <outline>
    <contour>
      <point x="375" y="-6" type="line"/>
      <point x="298" y="-6" type="line" smooth="yes"/>
      <point x="215" y="-6"/>
      <point x="143" y="13"/>
      <point x="81" y="55" type="curve"/>
      <point x="81" y="331" type="line"/>
      <point x="27" y="331" type="line"/>
      <point x="27" y="480" type="line"/>
      <point x="81" y="480" type="line"/>
      <point x="81" y="640" type="line"/>
      <point x="270" y="640" type="line"/>
      <point x="270" y="480" type="line"/>
      <point x="370" y="480" type="line"/>
      <point x="370" y="331" type="line"/>
      <point x="270" y="331" type="line"/>
      <point x="270" y="145" type="line"/>
      <point x="285" y="138"/>
      <point x="307" y="133"/>
      <point x="331" y="133" type="curve" smooth="yes"/>
      <point x="375" y="133" type="line"/>
    </contour>
  </outline>
</glyph>
<glyph name="u" format="1">
  <advance width="620"/>
  <unicode hex="0075"/>
  <outline>
    <contour>
      <point x="570" y="49" type="line"/>
      <point x="500" y="8"/>
      <point x="411" y="-13"/>
      <point x="310" y="-13" type="curve" smooth="yes"/>
      <point x="209" y="-13"/>
      <point x="120" y="7"/>
      <point x="50" y="49" type="curve"/>
      <point x="50" y="480" type="line"/>
      <point x="238" y="480" type="line"/>
      <point x="238" y="147" type="line"/>
      <point x="257" y="139"/>
      <point x="282" y="135"/>
      <point x="310" y="135" type="curve" smooth="yes"/>
      <point x="338" y="135"/>
      <point x="363" y="138"/>
      <point x="382" y="147" type="curve"/>
      <point x="382" y="480" type="line"/>
      <point x="570" y="480" type="line"/>
    </contour>
  </outline>
</glyph>
<glyph name="v" format="1">
  <advance width="618"/>
  <unicode hex="0076"/>
  <outline>
    <contour>
      <point x="569" y="346" type="line" smooth="yes"/>
      <point x="569" y="197"/>
      <point x="515" y="91"/>
      <point x="406" y="-6" type="curve"/>
      <point x="213" y="-6" type="line"/>
      <point x="105" y="89"/>
      <point x="49" y="195"/>
      <point x="49" y="346" type="curve" smooth="yes"/>
      <point x="49" y="480" type="line"/>
      <point x="238" y="480" type="line"/>
      <point x="238" y="334" type="line" smooth="yes"/>
      <point x="238" y="228"/>
      <point x="262" y="177"/>
      <point x="309" y="120" type="curve"/>
      <point x="356" y="176"/>
      <point x="380" y="227"/>
      <point x="380" y="334" type="curve" smooth="yes"/>
      <point x="380" y="480" type="line"/>
      <point x="569" y="480" type="line"/>
    </contour>
  </outline>
</glyph>
<glyph name="w" format="1">
  <advance width="868"/>
  <unicode hex="0077"/>
  <outline>
    <contour>
      <point x="818" y="49" type="line"/>
      <point x="714" y="7"/>
      <point x="570" y="-13"/>
      <point x="434" y="-13" type="curve" smooth="yes"/>
      <point x="300" y="-13"/>
      <point x="155" y="6"/>
      <point x="50" y="49" type="curve"/>
      <point x="50" y="480" type="line"/>
      <point x="233" y="480" type="line"/>
      <point x="233" y="144" type="line"/>
      <point x="260" y="135"/>
      <point x="290" y="131"/>
      <point x="343" y="130" type="curve"/>
      <point x="343" y="480" type="line"/>
      <point x="525" y="480" type="line"/>
      <point x="525" y="130" type="line"/>
      <point x="577" y="132"/>
      <point x="607" y="136"/>
      <point x="636" y="144" type="curve"/>
      <point x="636" y="480" type="line"/>
      <point x="818" y="480" type="line"/>
    </contour>
  </outline>
</glyph>
<glyph name="x" format="1">
  <advance width="609"/>
  <unicode hex="0078"/>
  <outline>
    <contour>
      <point x="561" y="0" type="line"/>
      <point x="373" y="0" type="line"/>
      <point x="373" y="137" type="line"/>
      <point x="361" y="148"/>
      <point x="338" y="156"/>
      <point x="305" y="156" type="curve" smooth="yes"/>
      <point x="271" y="156"/>
      <point x="248" y="148"/>
      <point x="236" y="137" type="curve"/>
      <point x="236" y="0" type="line"/>
      <point x="48" y="0" type="line"/>
      <point x="48" y="190" type="line"/>
      <point x="77" y="215"/>
      <point x="121" y="231"/>
      <point x="172" y="243" type="curve"/>
      <point x="120" y="255"/>
      <point x="75" y="274"/>
      <point x="51" y="296" type="curve"/>
      <point x="51" y="480" type="line"/>
      <point x="238" y="480" type="line"/>
      <point x="238" y="347" type="line"/>
      <point x="253" y="336"/>
      <point x="275" y="329"/>
      <point x="305" y="329" type="curve" smooth="yes"/>
      <point x="335" y="329"/>
      <point x="356" y="336"/>
      <point x="371" y="347" type="curve"/>
      <point x="371" y="480" type="line"/>
      <point x="558" y="480" type="line"/>
      <point x="558" y="296" type="line"/>
      <point x="534" y="274"/>
      <point x="489" y="256"/>
      <point x="436" y="243" type="curve"/>
      <point x="487" y="232"/>
      <point x="531" y="215"/>
      <point x="561" y="190" type="curve"/>
    </contour>
  </outline>
</glyph>
<glyph name="y" format="1">
  <advance width="620"/>
  <unicode hex="0079"/>
  <outline>
    <contour>
      <point x="570" y="-127" type="line"/>
      <point x="506" y="-162"/>
      <point x="423" y="-186"/>
      <point x="310" y="-186" type="curve" smooth="yes"/>
      <point x="201" y="-186"/>
      <point x="114" y="-165"/>
      <point x="50" y="-129" type="curve"/>
      <point x="50" y="-20" type="line"/>
      <point x="237" y="-20" type="line"/>
      <point x="237" y="-64" type="line"/>
      <point x="254" y="-70"/>
      <point x="275" y="-73"/>
      <point x="310" y="-73" type="curve" smooth="yes"/>
      <point x="344" y="-73"/>
      <point x="365" y="-69"/>
      <point x="382" y="-62" type="curve"/>
      <point x="382" y="16" type="line"/>
      <point x="352" y="5"/>
      <point x="318" y="-1"/>
      <point x="272" y="-1" type="curve" smooth="yes"/>
      <point x="188" y="-1"/>
      <point x="113" y="16"/>
      <point x="50" y="53" type="curve"/>
      <point x="50" y="480" type="line"/>
      <point x="238" y="480" type="line"/>
      <point x="238" y="147" type="line"/>
      <point x="257" y="139"/>
      <point x="282" y="135"/>
      <point x="310" y="135" type="curve" smooth="yes"/>
      <point x="338" y="135"/>
      <point x="363" y="139"/>
      <point x="382" y="147" type="curve"/>
      <point x="382" y="480" type="line"/>
      <point x="570" y="480" type="line"/>
    </contour>
  </outline>
</glyph>
<glyph name="z" format="1">
  <advance width="548"/>
  <unicode hex="007A"/>
  <outline>
    <contour>
      <point x="509" y="0" type="line"/>
      <point x="38" y="0" type="line"/>
      <point x="38" y="113" type="line"/>
      <point x="260" y="350" type="line"/>
      <point x="52" y="350" type="line"/>
      <point x="52" y="480" type="line"/>
      <point x="507" y="480" type="line"/>
      <point x="507" y="364" type="line"/>
      <point x="286" y="130" type="line"/>
      <point x="509" y="130" type="line"/>
    </contour>
  </outline>
</glyph>
<glyph name="braceleft" format="1">
  <advance width="483"/>
  <unicode hex="007B"/>
  <outline>
    <contour>
      <point x="435" y="-13" type="line"/>
      <point x="296" y="-13"/>
      <point x="202" y="13"/>
      <point x="111" y="67" type="curve"/>
      <point x="111" y="261" type="line"/>
      <point x="91" y="272"/>
      <point x="61" y="277"/>
      <point x="23" y="277" type="curve"/>
      <point x="23" y="444" type="line"/>
      <point x="60" y="444"/>
      <point x="90" y="449"/>
      <point x="111" y="461" type="curve"/>
      <point x="111" y="648" type="line"/>
      <point x="201" y="700"/>
      <point x="294" y="727"/>
      <point x="435" y="727" type="curve"/>
      <point x="435" y="554" type="line"/>
      <point x="392" y="553"/>
      <point x="349" y="545"/>
      <point x="319" y="534" type="curve"/>
      <point x="319" y="407" type="line"/>
      <point x="295" y="386"/>
      <point x="254" y="372"/>
      <point x="206" y="361" type="curve"/>
      <point x="252" y="352"/>
      <point x="294" y="336"/>
      <point x="319" y="315" type="curve"/>
      <point x="319" y="180" type="line"/>
      <point x="347" y="170"/>
      <point x="390" y="162"/>
      <point x="435" y="160" type="curve"/>
    </contour>
  </outline>
</glyph>
<glyph name="bar" format="1">
  <advance width="350"/>
  <unicode hex="007C"/>
  <outline>
    <contour>
      <point x="276" y="-150" type="line"/>
      <point x="74" y="-150" type="line"/>
      <point x="74" y="784" type="line"/>
      <point x="276" y="784" type="line"/>
    </contour>
  </outline>
</glyph>
<glyph name="braceright" format="1">
  <advance width="483"/>
  <unicode hex="007D"/>
  <outline>
    <contour>
      <point x="460" y="277" type="line"/>
      <point x="422" y="277"/>
      <point x="392" y="272"/>
      <point x="372" y="261" type="curve"/>
      <point x="372" y="67" type="line"/>
      <point x="281" y="13"/>
      <point x="187" y="-13"/>
      <point x="48" y="-13" type="curve"/>
      <point x="48" y="160" type="line"/>
      <point x="93" y="162"/>
      <point x="136" y="170"/>
      <point x="164" y="180" type="curve"/>
      <point x="164" y="315" type="line"/>
      <point x="189" y="336"/>
      <point x="231" y="352"/>
      <point x="277" y="361" type="curve"/>
      <point x="229" y="372"/>
      <point x="188" y="386"/>
      <point x="164" y="407" type="curve"/>
      <point x="164" y="534" type="line"/>
      <point x="134" y="545"/>
      <point x="91" y="553"/>
      <point x="48" y="554" type="curve"/>
      <point x="48" y="727" type="line"/>
      <point x="189" y="727"/>
      <point x="282" y="700"/>
      <point x="372" y="648" type="curve"/>
      <point x="372" y="461" type="line"/>
      <point x="393" y="449"/>
      <point x="423" y="444"/>
      <point x="460" y="444" type="curve"/>
    </contour>
  </outline>
</glyph>
<glyph name="asciitilde" format="1">
  <advance width="653"/>
  <unicode hex="007E"/>
  <outline>
    <contour>
      <point x="613" y="478" type="line"/>
      <point x="542" y="261" type="line"/>
      <point x="377" y="261" type="line"/>
      <point x="234" y="349" type="line"/>
      <point x="204" y="261" type="line"/>
      <point x="40" y="261" type="line"/>
      <point x="111" y="478" type="line"/>
      <point x="277" y="478" type="line"/>
      <point x="420" y="390" type="line"/>
      <point x="449" y="478" type="line"/>
    </contour>
  </outline>
</glyph>
<glyph name="exclamdown" format="1">
  <advance width="328"/>
  <unicode hex="00A1"/>
  <outline>
    <contour>
      <point x="274" y="560" type="line"/>
      <point x="53" y="560" type="line"/>
      <point x="53" y="720" type="line"/>
      <point x="274" y="720" type="line"/>
    </contour>
    <contour>
      <point x="272" y="0" type="line"/>
      <point x="55" y="0" type="line"/>
      <point x="55" y="500" type="line"/>
      <point x="272" y="500" type="line"/>
    </contour>
  </outline>
</glyph>
<glyph name="cent" format="1">
  <advance width="604"/>
  <unicode hex="00A2"/>
  <outline>
    <contour>
      <point x="561" y="168" type="line"/>
      <point x="515" y="139"/>
      <point x="460" y="121"/>
      <point x="400" y="113" type="curve"/>
      <point x="400" y="0" type="line"/>
      <point x="203" y="0" type="line"/>
      <point x="203" y="114" type="line"/>
      <point x="146" y="122"/>
      <point x="91" y="139"/>
      <point x="46" y="168" type="curve"/>
      <point x="46" y="551" type="line"/>
      <point x="90" y="578"/>
      <point x="144" y="596"/>
      <point x="203" y="604" type="curve"/>
      <point x="203" y="720" type="line"/>
      <point x="400" y="720" type="line"/>
      <point x="400" y="605" type="line"/>
      <point x="459" y="597"/>
      <point x="514" y="579"/>
      <point x="561" y="551" type="curve"/>
      <point x="561" y="402" type="line"/>
      <point x="374" y="402" type="line"/>
      <point x="374" y="467" type="line"/>
      <point x="355" y="474"/>
      <point x="331" y="477"/>
      <point x="304" y="477" type="curve" smooth="yes"/>
      <point x="277" y="477"/>
      <point x="252" y="475"/>
      <point x="233" y="467" type="curve"/>
      <point x="233" y="252" type="line"/>
      <point x="251" y="244"/>
      <point x="276" y="241"/>
      <point x="304" y="241" type="curve" smooth="yes"/>
      <point x="330" y="241"/>
      <point x="354" y="243"/>
      <point x="374" y="252" type="curve"/>
      <point x="374" y="317" type="line"/>
      <point x="561" y="317" type="line"/>
    </contour>
  </outline>
</glyph>
<glyph name="sterling" format="1">
  <advance width="765"/>
  <unicode hex="00A3"/>
  <outline>
    <contour>
      <point x="721" y="0" type="line"/>
      <point x="45" y="0" type="line"/>
      <point x="45" y="165" type="line"/>
      <point x="92" y="165" type="line"/>
      <point x="92" y="269" type="line"/>
      <point x="45" y="269" type="line"/>
      <point x="45" y="428" type="line"/>
      <point x="92" y="428" type="line"/>
      <point x="92" y="663" type="line"/>
      <point x="183" y="710"/>
      <point x="292" y="733"/>
      <point x="407" y="733" type="curve" smooth="yes"/>
      <point x="520" y="733"/>
      <point x="628" y="711"/>
      <point x="721" y="663" type="curve"/>
      <point x="721" y="493" type="line"/>
      <point x="503" y="493" type="line"/>
      <point x="503" y="564" type="line"/>
      <point x="474" y="573"/>
      <point x="445" y="578"/>
      <point x="406" y="578" type="curve" smooth="yes"/>
      <point x="369" y="578"/>
      <point x="341" y="573"/>
      <point x="310" y="564" type="curve"/>
      <point x="310" y="428" type="line"/>
      <point x="620" y="428" type="line"/>
      <point x="620" y="269" type="line"/>
      <point x="310" y="269" type="line"/>
      <point x="310" y="165" type="line"/>
      <point x="721" y="165" type="line"/>
    </contour>
  </outline>
</glyph>
<glyph name="yen" format="1">
  <advance width="795"/>
  <unicode hex="00A5"/>
  <outline>
    <contour>
      <point x="732" y="325" type="line"/>
      <point x="673" y="282"/>
      <point x="590" y="256"/>
      <point x="512" y="246" type="curve"/>
      <point x="512" y="206" type="line"/>
      <point x="640" y="206" type="line"/>
      <point x="640" y="60" type="line"/>
      <point x="512" y="60" type="line"/>
      <point x="512" y="0" type="line"/>
      <point x="285" y="0" type="line"/>
      <point x="285" y="60" type="line"/>
      <point x="157" y="60" type="line"/>
      <point x="157" y="206" type="line"/>
      <point x="285" y="206" type="line"/>
      <point x="285" y="246" type="line"/>
      <point x="206" y="256"/>
      <point x="122" y="282"/>
      <point x="62" y="325" type="curve"/>
      <point x="62" y="720" type="line"/>
      <point x="290" y="720" type="line"/>
      <point x="290" y="417" type="line"/>
      <point x="315" y="403"/>
      <point x="355" y="396"/>
      <point x="398" y="396" type="curve" smooth="yes"/>
      <point x="440" y="396"/>
      <point x="479" y="403"/>
      <point x="505" y="417" type="curve"/>
      <point x="505" y="720" type="line"/>
      <point x="732" y="720" type="line"/>
    </contour>
  </outline>
</glyph>
<glyph name="section" format="1">
  <advance width="767"/>
  <unicode hex="00A7"/>
  <outline>
    <contour>
      <point x="707" y="148" type="line"/>
      <point x="685" y="132"/>
      <point x="657" y="119"/>
      <point x="625" y="109" type="curve"/>
      <point x="702" y="46" type="line"/>
      <point x="702" y="-119" type="line"/>
      <point x="611" y="-165"/>
      <point x="503" y="-186"/>
      <point x="386" y="-186" type="curve" smooth="yes"/>
      <point x="271" y="-186"/>
      <point x="163" y="-166"/>
      <point x="70" y="-119" type="curve"/>
      <point x="70" y="35" type="line"/>
      <point x="281" y="35" type="line"/>
      <point x="281" y="-21" type="line"/>
      <point x="310" y="-30"/>
      <point x="343" y="-33"/>
      <point x="384" y="-33" type="curve" smooth="yes"/>
      <point x="422" y="-33"/>
      <point x="453" y="-30"/>
      <point x="484" y="-21" type="curve"/>
      <point x="484" y="25" type="line"/>
      <point x="420" y="76" type="line"/>
      <point x="408" y="75"/>
      <point x="396" y="75"/>
      <point x="384" y="75" type="curve" smooth="yes"/>
      <point x="253" y="75"/>
      <point x="141" y="98"/>
      <point x="60" y="136" type="curve"/>
      <point x="60" y="397" type="line"/>
      <point x="83" y="413"/>
      <point x="111" y="427"/>
      <point x="144" y="437" type="curve"/>
      <point x="67" y="501" type="line"/>
      <point x="67" y="665" type="line"/>
      <point x="158" y="711"/>
      <point x="266" y="733"/>
      <point x="384" y="733" type="curve" smooth="yes"/>
      <point x="498" y="733"/>
      <point x="606" y="712"/>
      <point x="699" y="665" type="curve"/>
      <point x="699" y="512" type="line"/>
      <point x="488" y="512" type="line"/>
      <point x="488" y="567" type="line"/>
      <point x="459" y="576"/>
      <point x="426" y="580"/>
      <point x="386" y="580" type="curve" smooth="yes"/>
      <point x="347" y="580"/>
      <point x="316" y="576"/>
      <point x="285" y="567" type="curve"/>
      <point x="285" y="521" type="line"/>
      <point x="351" y="469" type="line"/>
      <point x="362" y="470"/>
      <point x="372" y="470"/>
      <point x="384" y="470" type="curve" smooth="yes"/>
      <point x="513" y="470"/>
      <point x="625" y="447"/>
      <point x="707" y="409" type="curve"/>
    </contour>
    <contour>
      <point x="497" y="224" type="curve"/>
      <point x="497" y="320" type="line"/>
      <point x="472" y="329"/>
      <point x="431" y="335"/>
      <point x="386" y="335" type="curve" smooth="yes"/>
      <point x="341" y="335"/>
      <point x="302" y="329"/>
      <point x="276" y="320" type="curve"/>
      <point x="276" y="224" type="line"/>
      <point x="302" y="215"/>
      <point x="341" y="209"/>
      <point x="386" y="209" type="curve" smooth="yes"/>
      <point x="431" y="209"/>
      <point x="472" y="215"/>
    </contour>
  </outline>
</glyph>
<glyph name="dieresis" format="1">
  <advance width="575"/>
  <unicode hex="00A8"/>
  <outline>
    <contour>
      <point x="498" y="540" type="line"/>
      <point x="324" y="540" type="line"/>
      <point x="324" y="693" type="line"/>
      <point x="498" y="693" type="line"/>
    </contour>
    <contour>
      <point x="251" y="540" type="line"/>
      <point x="77" y="540" type="line"/>
      <point x="77" y="693" type="line"/>
      <point x="251" y="693" type="line"/>
    </contour>
  </outline>
</glyph>
<glyph name="copyright" format="1">
  <advance width="913"/>
  <unicode hex="00A9"/>
  <outline>
    <contour>
      <point x="851" y="76" type="line"/>
      <point x="750" y="16"/>
      <point x="607" y="-13"/>
      <point x="457" y="-13" type="curve" smooth="yes"/>
      <point x="304" y="-13"/>
      <point x="161" y="17"/>
      <point x="60" y="76" type="curve"/>
      <point x="60" y="644" type="line"/>
      <point x="161" y="703"/>
      <point x="304" y="733"/>
      <point x="457" y="733" type="curve" smooth="yes"/>
      <point x="607" y="733"/>
      <point x="750" y="704"/>
      <point x="851" y="644" type="curve"/>
    </contour>
    <contour>
      <point x="736" y="138" type="curve"/>
      <point x="736" y="582" type="line"/>
      <point x="651" y="620"/>
      <point x="556" y="639"/>
      <point x="456" y="639" type="curve" smooth="yes"/>
      <point x="359" y="639"/>
      <point x="263" y="621"/>
      <point x="177" y="583" type="curve"/>
      <point x="177" y="137" type="line"/>
      <point x="263" y="99"/>
      <point x="359" y="81"/>
      <point x="456" y="81" type="curve" smooth="yes"/>
      <point x="556" y="81"/>
      <point x="651" y="100"/>
    </contour>
    <contour>
      <point x="655" y="192" type="line"/>
      <point x="599" y="160"/>
      <point x="525" y="146"/>
      <point x="455" y="146" type="curve" smooth="yes"/>
      <point x="386" y="146"/>
      <point x="311" y="160"/>
      <point x="253" y="192" type="curve"/>
      <point x="253" y="531" type="line"/>
      <point x="310" y="563"/>
      <point x="384" y="577"/>
      <point x="455" y="577" type="curve" smooth="yes"/>
      <point x="524" y="577"/>
      <point x="598" y="564"/>
      <point x="655" y="531" type="curve"/>
      <point x="655" y="411" type="line"/>
      <point x="518" y="411" type="line"/>
      <point x="518" y="463" type="line"/>
      <point x="499" y="470"/>
      <point x="478" y="473"/>
      <point x="455" y="473" type="curve" smooth="yes"/>
      <point x="432" y="473"/>
      <point x="411" y="470"/>
      <point x="390" y="463" type="curve"/>
      <point x="390" y="261" type="line"/>
      <point x="410" y="254"/>
      <point x="431" y="250"/>
      <point x="455" y="250" type="curve" smooth="yes"/>
      <point x="477" y="250"/>
      <point x="498" y="253"/>
      <point x="518" y="261" type="curve"/>
      <point x="518" y="312" type="line"/>
      <point x="655" y="312" type="line"/>
    </contour>
  </outline>
</glyph>
<glyph name="ordfeminine" format="1">
  <advance width="563"/>
  <unicode hex="00AA"/>
  <outline>
    <contour>
      <point x="504" y="344" type="line"/>
      <point x="443" y="312"/>
      <point x="376" y="294"/>
      <point x="282" y="294" type="curve" smooth="yes"/>
      <point x="189" y="294"/>
      <point x="121" y="311"/>
      <point x="59" y="344" type="curve"/>
      <point x="59" y="529" type="line"/>
      <point x="110" y="550"/>
      <point x="173" y="562"/>
      <point x="258" y="562" type="curve" smooth="yes"/>
      <point x="290" y="562"/>
      <point x="317" y="559"/>
      <point x="339" y="553" type="curve"/>
      <point x="339" y="623" type="line"/>
      <point x="323" y="628"/>
      <point x="306" y="631"/>
      <point x="283" y="631" type="curve" smooth="yes"/>
      <point x="260" y="631"/>
      <point x="244" y="629"/>
      <point x="227" y="624" type="curve"/>
      <point x="227" y="585" type="line"/>
      <point x="62" y="585" type="line"/>
      <point x="62" y="684" type="line"/>
      <point x="122" y="715"/>
      <point x="194" y="731"/>
      <point x="283" y="731" type="curve" smooth="yes"/>
      <point x="369" y="731"/>
      <point x="442" y="715"/>
      <point x="504" y="681" type="curve"/>
    </contour>
    <contour>
      <point x="339" y="399" type="curve"/>
      <point x="339" y="463" type="line"/>
      <point x="326" y="467"/>
      <point x="305" y="470"/>
      <point x="282" y="470" type="curve" smooth="yes"/>
      <point x="257" y="470"/>
      <point x="241" y="469"/>
      <point x="223" y="462" type="curve"/>
      <point x="223" y="399" type="line"/>
      <point x="237" y="394"/>
      <point x="256" y="391"/>
      <point x="282" y="391" type="curve" smooth="yes"/>
      <point x="306" y="391"/>
      <point x="324" y="394"/>
    </contour>
  </outline>
</glyph>
<glyph name="guillemotleft" format="1">
  <advance width="751"/>
  <unicode hex="00AB"/>
  <outline>
    <contour>
      <point x="705" y="-10" type="line"/>
      <point x="388" y="166" type="line"/>
      <point x="388" y="314" type="line"/>
      <point x="705" y="490" type="line"/>
      <point x="705" y="328" type="line"/>
      <point x="535" y="240" type="line"/>
      <point x="705" y="153" type="line"/>
    </contour>
    <contour>
      <point x="353" y="-10" type="line"/>
      <point x="35" y="166" type="line"/>
      <point x="35" y="314" type="line"/>
      <point x="353" y="490" type="line"/>
      <point x="353" y="328" type="line"/>
      <point x="183" y="240" type="line"/>
      <point x="353" y="153" type="line"/>
    </contour>
  </outline>
</glyph>
<glyph name="macron" format="1">
  <advance width="575"/>
  <unicode hex="00AF"/>
  <unicode hex="02C9"/>
  <outline>
    <contour>
      <point x="502" y="545" type="line"/>
      <point x="74" y="545" type="line"/>
      <point x="74" y="685" type="line"/>
      <point x="502" y="685" type="line"/>
    </contour>
  </outline>
</glyph>
<glyph name="degree" format="1">
  <advance width="584"/>
  <unicode hex="00B0"/>
  <outline>
    <contour>
      <point x="532" y="366" type="line"/>
      <point x="468" y="330"/>
      <point x="379" y="306"/>
      <point x="292" y="306" type="curve" smooth="yes"/>
      <point x="207" y="306"/>
      <point x="117" y="329"/>
      <point x="52" y="366" type="curve"/>
      <point x="52" y="673" type="line"/>
      <point x="116" y="709"/>
      <point x="206" y="733"/>
      <point x="292" y="733" type="curve" smooth="yes"/>
      <point x="378" y="733"/>
      <point x="467" y="710"/>
      <point x="532" y="673" type="curve"/>
    </contour>
    <contour>
      <point x="361" y="443" type="curve"/>
      <point x="361" y="595" type="line"/>
      <point x="343" y="604"/>
      <point x="320" y="608"/>
      <point x="292" y="608" type="curve" smooth="yes"/>
      <point x="265" y="608"/>
      <point x="241" y="604"/>
      <point x="222" y="595" type="curve"/>
      <point x="222" y="443" type="line"/>
      <point x="241" y="434"/>
      <point x="265" y="430"/>
      <point x="292" y="430" type="curve" smooth="yes"/>
      <point x="320" y="430"/>
      <point x="343" y="434"/>
    </contour>
  </outline>
</glyph>
<glyph name="acute" format="1">
  <advance width="575"/>
  <unicode hex="00B4"/>
  <outline>
    <contour>
      <point x="434" y="720" type="line"/>
      <point x="313" y="540" type="line"/>
      <point x="142" y="540" type="line"/>
      <point x="253" y="720" type="line"/>
    </contour>
  </outline>
</glyph>
<glyph name="paragraph" format="1">
  <advance width="906"/>
  <unicode hex="00B6"/>
  <outline>
    <contour>
      <point x="837" y="0" type="line"/>
      <point x="651" y="0" type="line"/>
      <point x="651" y="574" type="line"/>
      <point x="581" y="574" type="line"/>
      <point x="581" y="0" type="line"/>
      <point x="395" y="0" type="line"/>
      <point x="395" y="230" type="line"/>
      <point x="385" y="230" type="line" smooth="yes"/>
      <point x="230" y="230"/>
      <point x="121" y="264"/>
      <point x="37" y="326" type="curve"/>
      <point x="37" y="625" type="line"/>
      <point x="122" y="689"/>
      <point x="231" y="720"/>
      <point x="385" y="720" type="curve" smooth="yes"/>
      <point x="837" y="720" type="line"/>
    </contour>
    <contour>
      <point x="397" y="378" type="line"/>
      <point x="397" y="574" type="line"/>
      <point x="373" y="574" type="line" smooth="yes"/>
      <point x="311" y="574"/>
      <point x="279" y="567"/>
      <point x="251" y="550" type="curve"/>
      <point x="251" y="402" type="line"/>
      <point x="281" y="385"/>
      <point x="313" y="378"/>
      <point x="373" y="378" type="curve" smooth="yes"/>
    </contour>
  </outline>
</glyph>
<glyph name="periodcentered" format="1">
  <advance width="305"/>
  <unicode hex="00B7"/>
  <unicode hex="2219"/>
  <outline>
    <contour>
      <point x="256" y="205" type="line"/>
      <point x="48" y="205" type="line"/>
      <point x="48" y="384" type="line"/>
      <point x="256" y="384" type="line"/>
    </contour>
  </outline>
</glyph>
<glyph name="cedilla" format="1">
  <advance width="575"/>
  <unicode hex="00B8"/>
  <outline>
    <contour>
      <point x="362" y="-120" type="line"/>
      <point x="303" y="-157"/>
      <point x="231" y="-170"/>
      <point x="151" y="-170" type="curve" smooth="yes"/>
      <point x="139" y="-170" type="line"/>
      <point x="139" y="-64" type="line"/>
      <point x="159" y="-64" type="line" smooth="yes"/>
      <point x="182" y="-64"/>
      <point x="203" y="-61"/>
      <point x="217" y="-51" type="curve"/>
      <point x="217" y="10" type="line"/>
      <point x="362" y="10" type="line"/>
    </contour>
  </outline>
</glyph>
<glyph name="ordmasculine" format="1">
  <advance width="563"/>
  <unicode hex="00BA"/>
  <outline>
    <contour>
      <point x="510" y="353" type="line"/>
      <point x="454" y="320"/>
      <point x="381" y="294"/>
      <point x="282" y="294" type="curve" smooth="yes"/>
      <point x="185" y="294"/>
      <point x="109" y="318"/>
      <point x="53" y="353" type="curve"/>
      <point x="53" y="673" type="line"/>
      <point x="108" y="707"/>
      <point x="182" y="731"/>
      <point x="282" y="731" type="curve" smooth="yes"/>
      <point x="379" y="731"/>
      <point x="452" y="708"/>
      <point x="510" y="673" type="curve"/>
    </contour>
    <contour>
      <point x="344" y="422" type="curve"/>
      <point x="344" y="603" type="line"/>
      <point x="330" y="610"/>
      <point x="308" y="615"/>
      <point x="282" y="615" type="curve" smooth="yes"/>
      <point x="255" y="615"/>
      <point x="234" y="610"/>
      <point x="219" y="603" type="curve"/>
      <point x="219" y="422" type="line"/>
      <point x="233" y="416"/>
      <point x="254" y="411"/>
      <point x="282" y="411" type="curve" smooth="yes"/>
      <point x="308" y="411"/>
      <point x="329" y="416"/>
    </contour>
  </outline>
</glyph>
<glyph name="questiondown" format="1">
  <advance width="702"/>
  <unicode hex="00BF"/>
  <outline>
    <contour>
      <point x="460" y="560" type="line"/>
      <point x="238" y="560" type="line"/>
      <point x="238" y="720" type="line"/>
      <point x="460" y="720" type="line"/>
    </contour>
    <contour>
      <point x="667" y="62" type="line"/>
      <point x="575" y="10"/>
      <point x="466" y="-13"/>
      <point x="352" y="-13" type="curve" smooth="yes"/>
      <point x="235" y="-13"/>
      <point x="127" y="11"/>
      <point x="36" y="62" type="curve"/>
      <point x="36" y="322" type="line"/>
      <point x="239" y="440" type="line"/>
      <point x="239" y="505" type="line"/>
      <point x="458" y="505" type="line"/>
      <point x="458" y="358" type="line"/>
      <point x="254" y="240" type="line"/>
      <point x="254" y="162" type="line"/>
      <point x="285" y="151"/>
      <point x="316" y="145"/>
      <point x="355" y="145" type="curve" smooth="yes"/>
      <point x="395" y="145"/>
      <point x="428" y="151"/>
      <point x="457" y="162" type="curve"/>
      <point x="457" y="238" type="line"/>
      <point x="667" y="238" type="line"/>
    </contour>
  </outline>
</glyph>
<glyph name="Aring" format="1">
  <advance width="796"/>
  <unicode hex="00C5"/>
  <outline>
    <contour>
      <point x="733" y="0" type="line"/>
      <point x="508" y="0" type="line"/>
      <point x="508" y="217" type="line"/>
      <point x="288" y="217" type="line"/>
      <point x="288" y="0" type="line"/>
      <point x="63" y="0" type="line"/>
      <point x="63" y="648" type="line"/>
      <point x="148" y="702"/>
      <point x="276" y="733"/>
      <point x="399" y="733" type="curve" smooth="yes"/>
      <point x="522" y="733"/>
      <point x="648" y="703"/>
      <point x="733" y="648" type="curve"/>
    </contour>
    <contour>
      <point x="508" y="376" type="line"/>
      <point x="508" y="554" type="line"/>
      <point x="478" y="568"/>
      <point x="439" y="575"/>
      <point x="398" y="575" type="curve" smooth="yes"/>
      <point x="357" y="575"/>
      <point x="319" y="568"/>
      <point x="288" y="554" type="curve"/>
      <point x="288" y="376" type="line"/>
    </contour>
    <contour>
      <point x="602" y="801" type="line"/>
      <point x="548" y="777"/>
      <point x="481" y="763"/>
      <point x="399" y="763" type="curve" smooth="yes"/>
      <point x="317" y="763"/>
      <point x="250" y="776"/>
      <point x="195" y="801" type="curve"/>
      <point x="195" y="936" type="line"/>
      <point x="250" y="961"/>
      <point x="317" y="974"/>
      <point x="399" y="974" type="curve" smooth="yes"/>
      <point x="481" y="974"/>
      <point x="548" y="960"/>
      <point x="602" y="936" type="curve"/>
    </contour>
    <contour>
      <point x="459" y="845" type="curve"/>
      <point x="459" y="891" type="line"/>
      <point x="443" y="896"/>
      <point x="422" y="898"/>
      <point x="399" y="898" type="curve" smooth="yes"/>
      <point x="375" y="898"/>
      <point x="354" y="896"/>
      <point x="339" y="891" type="curve"/>
      <point x="339" y="845" type="line"/>
      <point x="354" y="841"/>
      <point x="375" y="839"/>
      <point x="399" y="839" type="curve" smooth="yes"/>
      <point x="422" y="839"/>
      <point x="443" y="841"/>
    </contour>
  </outline>
</glyph>
<glyph name="AE" format="1">
  <advance width="1242"/>
  <unicode hex="00C6"/>
  <outline>
    <contour>
      <point x="1183" y="59" type="line"/>
      <point x="1088" y="11"/>
      <point x="964" y="-13"/>
      <point x="844" y="-13" type="curve" smooth="yes"/>
      <point x="722" y="-13"/>
      <point x="596" y="16"/>
      <point x="508" y="63" type="curve"/>
      <point x="508" y="217" type="line"/>
      <point x="288" y="217" type="line"/>
      <point x="288" y="0" type="line"/>
      <point x="63" y="0" type="line"/>
      <point x="63" y="648" type="line"/>
      <point x="148" y="702"/>
      <point x="276" y="733"/>
      <point x="399" y="733" type="curve" smooth="yes"/>
      <point x="475" y="733"/>
      <point x="560" y="716"/>
      <point x="619" y="687" type="curve"/>
      <point x="676" y="713"/>
      <point x="764" y="733"/>
      <point x="844" y="733" type="curve" smooth="yes"/>
      <point x="963" y="733"/>
      <point x="1086" y="711"/>
      <point x="1183" y="661" type="curve"/>
      <point x="1183" y="493" type="line"/>
      <point x="957" y="493" type="line"/>
      <point x="957" y="560" type="line"/>
      <point x="922" y="571"/>
      <point x="886" y="576"/>
      <point x="843" y="576" type="curve" smooth="yes"/>
      <point x="800" y="576"/>
      <point x="766" y="570"/>
      <point x="734" y="560" type="curve"/>
      <point x="734" y="445" type="line"/>
      <point x="1086" y="445" type="line"/>
      <point x="1086" y="287" type="line"/>
      <point x="734" y="287" type="line"/>
      <point x="734" y="160" type="line"/>
      <point x="765" y="150"/>
      <point x="800" y="143"/>
      <point x="843" y="143" type="curve" smooth="yes"/>
      <point x="885" y="143"/>
      <point x="921" y="148"/>
      <point x="957" y="160" type="curve"/>
      <point x="957" y="227" type="line"/>
      <point x="1183" y="227" type="line"/>
    </contour>
    <contour>
      <point x="508" y="375" type="line"/>
      <point x="508" y="554" type="line"/>
      <point x="478" y="568"/>
      <point x="439" y="575"/>
      <point x="398" y="575" type="curve" smooth="yes"/>
      <point x="357" y="575"/>
      <point x="319" y="568"/>
      <point x="288" y="554" type="curve"/>
      <point x="288" y="375" type="line"/>
    </contour>
  </outline>
</glyph>
<glyph name="Ccedilla" format="1">
  <advance width="810"/>
  <unicode hex="00C7"/>
  <outline>
    <contour>
      <point x="750" y="67" type="line"/>
      <point x="673" y="22"/>
      <point x="575" y="-3"/>
      <point x="476" y="-10" type="curve"/>
      <point x="476" y="-120" type="line"/>
      <point x="417" y="-157"/>
      <point x="345" y="-170"/>
      <point x="265" y="-170" type="curve" smooth="yes"/>
      <point x="252" y="-170" type="line"/>
      <point x="252" y="-64" type="line"/>
      <point x="272" y="-64" type="line" smooth="yes"/>
      <point x="295" y="-64"/>
      <point x="317" y="-61"/>
      <point x="330" y="-51" type="curve"/>
      <point x="330" y="-10" type="line"/>
      <point x="234" y="-3"/>
      <point x="138" y="22"/>
      <point x="60" y="67" type="curve"/>
      <point x="60" y="653" type="line"/>
      <point x="155" y="707"/>
      <point x="284" y="733"/>
      <point x="406" y="733" type="curve" smooth="yes"/>
      <point x="525" y="733"/>
      <point x="653" y="709"/>
      <point x="750" y="653" type="curve"/>
      <point x="750" y="453" type="line"/>
      <point x="524" y="453" type="line"/>
      <point x="524" y="555" type="line"/>
      <point x="489" y="576"/>
      <point x="448" y="587"/>
      <point x="405" y="587" type="curve" smooth="yes"/>
      <point x="363" y="587"/>
      <point x="323" y="577"/>
      <point x="286" y="555" type="curve"/>
      <point x="286" y="166" type="line"/>
      <point x="321" y="144"/>
      <point x="362" y="133"/>
      <point x="405" y="133" type="curve" smooth="yes"/>
      <point x="447" y="133"/>
      <point x="488" y="143"/>
      <point x="524" y="166" type="curve"/>
      <point x="524" y="267" type="line"/>
      <point x="750" y="267" type="line"/>
    </contour>
  </outline>
</glyph>
<glyph name="Eth" format="1">
  <advance width="840"/>
  <unicode hex="00D0"/>
  <outline>
    <contour>
      <point x="780" y="108" type="line"/>
      <point x="694" y="43"/>
      <point x="567" y="0"/>
      <point x="412" y="0" type="curve" smooth="yes"/>
      <point x="88" y="0" type="line"/>
      <point x="88" y="288" type="line"/>
      <point x="28" y="288" type="line"/>
      <point x="28" y="451" type="line"/>
      <point x="88" y="451" type="line"/>
      <point x="88" y="720" type="line"/>
      <point x="412" y="720" type="line" smooth="yes"/>
      <point x="565" y="720"/>
      <point x="691" y="679"/>
      <point x="780" y="613" type="curve"/>
    </contour>
    <contour>
      <point x="554" y="189" type="curve"/>
      <point x="554" y="531" type="line"/>
      <point x="524" y="549"/>
      <point x="475" y="561"/>
      <point x="412" y="561" type="curve" smooth="yes"/>
      <point x="309" y="561" type="line"/>
      <point x="309" y="451" type="line"/>
      <point x="394" y="451" type="line"/>
      <point x="394" y="288" type="line"/>
      <point x="309" y="288" type="line"/>
      <point x="309" y="159" type="line"/>
      <point x="412" y="159" type="line" smooth="yes"/>
      <point x="474" y="159"/>
      <point x="523" y="171"/>
    </contour>
  </outline>
</glyph>
<glyph name="Oslash" format="1">
  <advance width="831"/>
  <unicode hex="00D8"/>
  <outline>
    <contour>
      <point x="770" y="75" type="line"/>
      <point x="675" y="17"/>
      <point x="548" y="-12"/>
      <point x="416" y="-13" type="curve" smooth="yes"/>
      <point x="385" y="-13"/>
      <point x="355" y="-11"/>
      <point x="324" y="-8" type="curve"/>
      <point x="290" y="-70" type="line"/>
      <point x="60" y="-70" type="line"/>
      <point x="123" y="43" type="line"/>
      <point x="101" y="53"/>
      <point x="80" y="63"/>
      <point x="60" y="75" type="curve"/>
      <point x="60" y="646" type="line"/>
      <point x="156" y="703"/>
      <point x="282" y="733"/>
      <point x="416" y="733" type="curve" smooth="yes"/>
      <point x="446" y="733"/>
      <point x="477" y="731"/>
      <point x="506" y="728" type="curve"/>
      <point x="541" y="790" type="line"/>
      <point x="770" y="790" type="line"/>
      <point x="708" y="678" type="line"/>
      <point x="730" y="669"/>
      <point x="750" y="658"/>
      <point x="770" y="646" type="curve"/>
    </contour>
    <contour>
      <point x="544" y="177" type="curve"/>
      <point x="544" y="544" type="line"/>
      <point x="509" y="558"/>
      <point x="467" y="567"/>
      <point x="415" y="567" type="curve" smooth="yes"/>
      <point x="365" y="567"/>
      <point x="322" y="558"/>
      <point x="286" y="544" type="curve"/>
      <point x="286" y="177" type="line"/>
      <point x="321" y="162"/>
      <point x="364" y="153"/>
      <point x="415" y="153" type="curve" smooth="yes"/>
      <point x="466" y="153"/>
      <point x="508" y="162"/>
    </contour>
  </outline>
</glyph>
<glyph name="Thorn" format="1">
  <advance width="762"/>
  <unicode hex="00DE"/>
  <outline>
    <contour>
      <point x="725" y="223" type="line"/>
      <point x="641" y="161"/>
      <point x="532" y="127"/>
      <point x="377" y="127" type="curve" smooth="yes"/>
      <point x="296" y="127" type="line"/>
      <point x="296" y="0" type="line"/>
      <point x="68" y="0" type="line"/>
      <point x="68" y="720" type="line"/>
      <point x="293" y="720" type="line"/>
      <point x="293" y="607" type="line"/>
      <point x="377" y="607" type="line" smooth="yes"/>
      <point x="531" y="607"/>
      <point x="640" y="576"/>
      <point x="725" y="512" type="curve"/>
    </contour>
    <contour>
      <point x="499" y="302" type="curve"/>
      <point x="499" y="433" type="line"/>
      <point x="471" y="450"/>
      <point x="439" y="457"/>
      <point x="377" y="457" type="curve" smooth="yes"/>
      <point x="293" y="457" type="line"/>
      <point x="293" y="277" type="line"/>
      <point x="377" y="277" type="line" smooth="yes"/>
      <point x="437" y="277"/>
      <point x="469" y="284"/>
    </contour>
  </outline>
</glyph>
<glyph name="germandbls" format="1">
  <advance width="607"/>
  <unicode hex="00DF"/>
  <outline>
    <contour>
      <point x="567" y="61" type="line"/>
      <point x="502" y="18"/>
      <point x="390" y="-1"/>
      <point x="297" y="-2" type="curve"/>
      <point x="297" y="140" type="line"/>
      <point x="326" y="140"/>
      <point x="359" y="144"/>
      <point x="379" y="154" type="curve"/>
      <point x="379" y="258" type="line"/>
      <point x="361" y="274"/>
      <point x="325" y="287"/>
      <point x="276" y="287" type="curve" smooth="yes"/>
      <point x="240" y="287" type="line"/>
      <point x="240" y="0" type="line"/>
      <point x="54" y="0" type="line"/>
      <point x="54" y="670" type="line"/>
      <point x="115" y="706"/>
      <point x="197" y="730"/>
      <point x="306" y="730" type="curve" smooth="yes"/>
      <point x="413" y="730"/>
      <point x="496" y="706"/>
      <point x="559" y="670" type="curve"/>
      <point x="559" y="425" type="line"/>
      <point x="532" y="400"/>
      <point x="481" y="376"/>
      <point x="422" y="362" type="curve"/>
      <point x="482" y="349"/>
      <point x="533" y="330"/>
      <point x="567" y="298" type="curve"/>
    </contour>
    <contour>
      <point x="371" y="465" type="curve"/>
      <point x="371" y="587" type="line"/>
      <point x="356" y="592"/>
      <point x="337" y="596"/>
      <point x="306" y="596" type="curve" smooth="yes"/>
      <point x="276" y="596"/>
      <point x="256" y="592"/>
      <point x="240" y="587" type="curve"/>
      <point x="240" y="437" type="line"/>
      <point x="276" y="437" type="line" smooth="yes"/>
      <point x="317" y="437"/>
      <point x="350" y="447"/>
    </contour>
  </outline>
</glyph>
<glyph name="ae" format="1">
  <advance width="913"/>
  <unicode hex="00E6"/>
  <outline>
    <contour>
      <point x="868" y="49" type="line"/>
      <point x="799" y="9"/>
      <point x="717" y="-13"/>
      <point x="616" y="-13" type="curve" smooth="yes"/>
      <point x="558" y="-13"/>
      <point x="505" y="-1"/>
      <point x="458" y="17" type="curve"/>
      <point x="413" y="0"/>
      <point x="361" y="-13"/>
      <point x="296" y="-13" type="curve" smooth="yes"/>
      <point x="190" y="-13"/>
      <point x="114" y="6"/>
      <point x="43" y="45" type="curve"/>
      <point x="43" y="258" type="line"/>
      <point x="102" y="283"/>
      <point x="172" y="297"/>
      <point x="269" y="297" type="curve" smooth="yes"/>
      <point x="307" y="297"/>
      <point x="337" y="293"/>
      <point x="363" y="285" type="curve"/>
      <point x="363" y="368" type="line"/>
      <point x="344" y="375"/>
      <point x="326" y="378"/>
      <point x="297" y="378" type="curve" smooth="yes"/>
      <point x="270" y="378"/>
      <point x="253" y="376"/>
      <point x="233" y="370" type="curve"/>
      <point x="233" y="326" type="line"/>
      <point x="46" y="326" type="line"/>
      <point x="46" y="438" type="line"/>
      <point x="115" y="475"/>
      <point x="196" y="493"/>
      <point x="297" y="493" type="curve" smooth="yes"/>
      <point x="357" y="493"/>
      <point x="411" y="480"/>
      <point x="459" y="462" type="curve"/>
      <point x="504" y="480"/>
      <point x="555" y="493"/>
      <point x="615" y="493" type="curve" smooth="yes"/>
      <point x="718" y="493"/>
      <point x="799" y="471"/>
      <point x="868" y="429" type="curve"/>
      <point x="868" y="193" type="line"/>
      <point x="548" y="193" type="line"/>
      <point x="548" y="118" type="line"/>
      <point x="567" y="110"/>
      <point x="590" y="107"/>
      <point x="616" y="107" type="curve" smooth="yes"/>
      <point x="640" y="107"/>
      <point x="661" y="109"/>
      <point x="681" y="118" type="curve"/>
      <point x="681" y="159" type="line"/>
      <point x="868" y="159" type="line"/>
    </contour>
    <contour>
      <point x="681" y="292" type="line"/>
      <point x="681" y="363" type="line"/>
      <point x="664" y="371"/>
      <point x="644" y="375"/>
      <point x="615" y="375" type="curve" smooth="yes"/>
      <point x="587" y="375"/>
      <point x="567" y="371"/>
      <point x="548" y="363" type="curve"/>
      <point x="548" y="292" type="line"/>
    </contour>
    <contour>
      <point x="363" y="111" type="curve"/>
      <point x="363" y="181" type="line"/>
      <point x="347" y="185"/>
      <point x="322" y="189"/>
      <point x="296" y="189" type="curve" smooth="yes"/>
      <point x="269" y="189"/>
      <point x="248" y="187"/>
      <point x="228" y="179" type="curve"/>
      <point x="228" y="111" type="line"/>
      <point x="244" y="105"/>
      <point x="264" y="102"/>
      <point x="296" y="101" type="curve" smooth="yes"/>
      <point x="327" y="101"/>
      <point x="346" y="104"/>
    </contour>
  </outline>
</glyph>
<glyph name="ccedilla" format="1">
  <advance width="604"/>
  <unicode hex="00E7"/>
  <outline>
    <contour>
      <point x="561" y="49" type="line"/>
      <point x="509" y="18"/>
      <point x="447" y="-2"/>
      <point x="377" y="-9" type="curve"/>
      <point x="377" y="-120" type="line"/>
      <point x="318" y="-157"/>
      <point x="246" y="-170"/>
      <point x="165" y="-170" type="curve" smooth="yes"/>
      <point x="153" y="-170" type="line"/>
      <point x="153" y="-64" type="line"/>
      <point x="173" y="-64" type="line" smooth="yes"/>
      <point x="196" y="-64"/>
      <point x="217" y="-61"/>
      <point x="231" y="-51" type="curve"/>
      <point x="231" y="-9" type="line"/>
      <point x="162" y="-2"/>
      <point x="99" y="16"/>
      <point x="46" y="49" type="curve"/>
      <point x="46" y="432" type="line"/>
      <point x="115" y="472"/>
      <point x="201" y="493"/>
      <point x="304" y="493" type="curve" smooth="yes"/>
      <point x="403" y="493"/>
      <point x="490" y="473"/>
      <point x="561" y="432" type="curve"/>
      <point x="561" y="283" type="line"/>
      <point x="374" y="283" type="line"/>
      <point x="374" y="354" type="line"/>
      <point x="355" y="366"/>
      <point x="332" y="371"/>
      <point x="304" y="371" type="curve" smooth="yes"/>
      <point x="276" y="371"/>
      <point x="252" y="367"/>
      <point x="233" y="354" type="curve"/>
      <point x="233" y="126" type="line"/>
      <point x="251" y="114"/>
      <point x="275" y="109"/>
      <point x="304" y="109" type="curve" smooth="yes"/>
      <point x="331" y="109"/>
      <point x="354" y="113"/>
      <point x="374" y="126" type="curve"/>
      <point x="374" y="198" type="line"/>
      <point x="561" y="198" type="line"/>
    </contour>
  </outline>
</glyph>
<glyph name="oslash" format="1">
  <advance width="616"/>
  <unicode hex="00F8"/>
  <outline>
    <contour>
      <point x="571" y="56" type="line"/>
      <point x="508" y="17"/>
      <point x="422" y="-13"/>
      <point x="309" y="-13" type="curve" smooth="yes"/>
      <point x="304" y="-13"/>
      <point x="300" y="-13"/>
      <point x="295" y="-13" type="curve"/>
      <point x="266" y="-70" type="line"/>
      <point x="46" y="-70" type="line"/>
      <point x="97" y="28" type="line"/>
      <point x="79" y="37"/>
      <point x="62" y="46"/>
      <point x="46" y="56" type="curve"/>
      <point x="46" y="425" type="line"/>
      <point x="109" y="464"/>
      <point x="195" y="493"/>
      <point x="309" y="493" type="curve" smooth="yes"/>
      <point x="313" y="493"/>
      <point x="318" y="493"/>
      <point x="322" y="493" type="curve"/>
      <point x="352" y="550" type="line"/>
      <point x="571" y="550" type="line"/>
      <point x="521" y="452" type="line"/>
      <point x="539" y="444"/>
      <point x="556" y="435"/>
      <point x="571" y="425" type="curve"/>
    </contour>
    <contour>
      <point x="384" y="140" type="curve"/>
      <point x="384" y="341" type="line"/>
      <point x="367" y="349"/>
      <point x="342" y="355"/>
      <point x="309" y="355" type="curve" smooth="yes"/>
      <point x="276" y="355"/>
      <point x="250" y="349"/>
      <point x="233" y="341" type="curve"/>
      <point x="233" y="140" type="line"/>
      <point x="249" y="132"/>
      <point x="274" y="125"/>
      <point x="309" y="125" type="curve" smooth="yes"/>
      <point x="341" y="125"/>
      <point x="366" y="131"/>
    </contour>
  </outline>
</glyph>
<glyph name="thorn" format="1">
  <advance width="611"/>
  <unicode hex="00FE"/>
  <outline>
    <contour>
      <point x="575" y="58" type="line"/>
      <point x="514" y="13"/>
      <point x="434" y="-10"/>
      <point x="348" y="-10" type="curve" smooth="yes"/>
      <point x="303" y="-10"/>
      <point x="267" y="-2"/>
      <point x="238" y="9" type="curve"/>
      <point x="238" y="-175" type="line"/>
      <point x="50" y="-175" type="line"/>
      <point x="50" y="720" type="line"/>
      <point x="238" y="720" type="line"/>
      <point x="238" y="471" type="line"/>
      <point x="267" y="482"/>
      <point x="303" y="490"/>
      <point x="348" y="490" type="curve" smooth="yes"/>
      <point x="434" y="490"/>
      <point x="514" y="467"/>
      <point x="575" y="422" type="curve"/>
    </contour>
    <contour>
      <point x="388" y="141" type="curve"/>
      <point x="388" y="338" type="line"/>
      <point x="371" y="347"/>
      <point x="346" y="353"/>
      <point x="313" y="353" type="curve" smooth="yes"/>
      <point x="278" y="353"/>
      <point x="255" y="347"/>
      <point x="237" y="339" type="curve"/>
      <point x="237" y="140" type="line"/>
      <point x="255" y="133"/>
      <point x="278" y="127"/>
      <point x="313" y="127" type="curve" smooth="yes"/>
      <point x="346" y="127"/>
      <point x="371" y="133"/>
    </contour>
  </outline>
</glyph>
<glyph name="dotlessi" format="1">
  <advance width="301"/>
  <unicode hex="0131"/>
  <outline>
    <contour>
      <point x="245" y="0" type="line"/>
      <point x="56" y="0" type="line"/>
      <point x="56" y="480" type="line"/>
      <point x="245" y="480" type="line"/>
    </contour>
  </outline>
</glyph>
<glyph name="Lslash" format="1">
  <advance width="661"/>
  <unicode hex="0141"/>
  <outline>
    <contour>
      <point x="624" y="0" type="line"/>
      <point x="83" y="0" type="line"/>
      <point x="83" y="257" type="line"/>
      <point x="28" y="235" type="line"/>
      <point x="28" y="409" type="line"/>
      <point x="83" y="432" type="line"/>
      <point x="83" y="720" type="line"/>
      <point x="305" y="720" type="line"/>
      <point x="305" y="498" type="line"/>
      <point x="431" y="549" type="line"/>
      <point x="431" y="375" type="line"/>
      <point x="305" y="324" type="line"/>
      <point x="305" y="180" type="line"/>
      <point x="624" y="180" type="line"/>
    </contour>
  </outline>
</glyph>
<glyph name="lslash" format="1">
  <advance width="331"/>
  <unicode hex="0142"/>
  <outline>
    <contour>
      <point x="308" y="317" type="line"/>
      <point x="260" y="297" type="line"/>
      <point x="260" y="0" type="line"/>
      <point x="71" y="0" type="line"/>
      <point x="71" y="239" type="line"/>
      <point x="23" y="220" type="line"/>
      <point x="23" y="394" type="line"/>
      <point x="71" y="414" type="line"/>
      <point x="71" y="720" type="line"/>
      <point x="260" y="720" type="line"/>
      <point x="260" y="472" type="line"/>
      <point x="308" y="491" type="line"/>
    </contour>
  </outline>
</glyph>
<glyph name="OE" format="1">
  <advance width="1269"/>
  <unicode hex="0152"/>
  <outline>
    <contour>
      <point x="1209" y="59" type="line"/>
      <point x="1114" y="11"/>
      <point x="991" y="-13"/>
      <point x="870" y="-13" type="curve" smooth="yes"/>
      <point x="790" y="-13"/>
      <point x="701" y="7"/>
      <point x="644" y="33" type="curve"/>
      <point x="582" y="4"/>
      <point x="501" y="-13"/>
      <point x="411" y="-13" type="curve" smooth="yes"/>
      <point x="280" y="-14"/>
      <point x="157" y="15"/>
      <point x="60" y="69" type="curve"/>
      <point x="60" y="652" type="line"/>
      <point x="156" y="705"/>
      <point x="278" y="733"/>
      <point x="411" y="733" type="curve" smooth="yes"/>
      <point x="501" y="733"/>
      <point x="583" y="716"/>
      <point x="645" y="687" type="curve"/>
      <point x="702" y="713"/>
      <point x="790" y="733"/>
      <point x="870" y="733" type="curve" smooth="yes"/>
      <point x="989" y="733"/>
      <point x="1112" y="711"/>
      <point x="1209" y="661" type="curve"/>
      <point x="1209" y="493" type="line"/>
      <point x="984" y="493" type="line"/>
      <point x="984" y="560" type="line"/>
      <point x="949" y="571"/>
      <point x="913" y="576"/>
      <point x="869" y="576" type="curve" smooth="yes"/>
      <point x="826" y="576"/>
      <point x="792" y="570"/>
      <point x="760" y="560" type="curve"/>
      <point x="760" y="445" type="line"/>
      <point x="1113" y="445" type="line"/>
      <point x="1113" y="287" type="line"/>
      <point x="760" y="287" type="line"/>
      <point x="760" y="160" type="line"/>
      <point x="792" y="150"/>
      <point x="826" y="143"/>
      <point x="869" y="143" type="curve" smooth="yes"/>
      <point x="912" y="143"/>
      <point x="947" y="148"/>
      <point x="984" y="160" type="curve"/>
      <point x="984" y="227" type="line"/>
      <point x="1209" y="227" type="line"/>
    </contour>
    <contour>
      <point x="534" y="170" type="curve"/>
      <point x="534" y="549" type="line"/>
      <point x="499" y="561"/>
      <point x="462" y="568"/>
      <point x="410" y="568" type="curve" smooth="yes"/>
      <point x="360" y="568"/>
      <point x="322" y="561"/>
      <point x="286" y="547" type="curve"/>
      <point x="286" y="173" type="line"/>
      <point x="321" y="160"/>
      <point x="359" y="152"/>
      <point x="410" y="152" type="curve" smooth="yes"/>
      <point x="462" y="152"/>
      <point x="499" y="159"/>
    </contour>
  </outline>
</glyph>
<glyph name="oe" format="1">
  <advance width="924"/>
  <unicode hex="0153"/>
  <outline>
    <contour>
      <point x="879" y="49" type="line"/>
      <point x="810" y="9"/>
      <point x="728" y="-13"/>
      <point x="627" y="-13" type="curve" smooth="yes"/>
      <point x="567" y="-13"/>
      <point x="513" y="-1"/>
      <point x="465" y="19" type="curve"/>
      <point x="421" y="2"/>
      <point x="368" y="-13"/>
      <point x="304" y="-13" type="curve" smooth="yes"/>
      <point x="192" y="-13"/>
      <point x="110" y="14"/>
      <point x="46" y="54" type="curve"/>
      <point x="46" y="427" type="line"/>
      <point x="109" y="465"/>
      <point x="190" y="493"/>
      <point x="304" y="493" type="curve" smooth="yes"/>
      <point x="369" y="493"/>
      <point x="422" y="478"/>
      <point x="467" y="460" type="curve"/>
      <point x="512" y="480"/>
      <point x="565" y="493"/>
      <point x="626" y="493" type="curve" smooth="yes"/>
      <point x="729" y="493"/>
      <point x="810" y="471"/>
      <point x="879" y="429" type="curve"/>
      <point x="879" y="193" type="line"/>
      <point x="559" y="193" type="line"/>
      <point x="559" y="118" type="line"/>
      <point x="578" y="110"/>
      <point x="601" y="107"/>
      <point x="627" y="107" type="curve" smooth="yes"/>
      <point x="651" y="107"/>
      <point x="672" y="109"/>
      <point x="692" y="118" type="curve"/>
      <point x="692" y="159" type="line"/>
      <point x="879" y="159" type="line"/>
    </contour>
    <contour>
      <point x="692" y="292" type="line"/>
      <point x="692" y="363" type="line"/>
      <point x="675" y="371"/>
      <point x="655" y="375"/>
      <point x="626" y="375" type="curve" smooth="yes"/>
      <point x="598" y="375"/>
      <point x="578" y="371"/>
      <point x="559" y="363" type="curve"/>
      <point x="559" y="292" type="line"/>
    </contour>
    <contour>
      <point x="374" y="137" type="curve"/>
      <point x="374" y="343" type="line"/>
      <point x="357" y="351"/>
      <point x="337" y="357"/>
      <point x="304" y="357" type="curve" smooth="yes"/>
      <point x="271" y="357"/>
      <point x="250" y="351"/>
      <point x="233" y="343" type="curve"/>
      <point x="233" y="137" type="line"/>
      <point x="249" y="130"/>
      <point x="269" y="123"/>
      <point x="304" y="123" type="curve" smooth="yes"/>
      <point x="336" y="123"/>
      <point x="356" y="129"/>
    </contour>
  </outline>
</glyph>
<glyph name="florin" format="1">
  <advance width="416"/>
  <unicode hex="0192"/>
  <outline>
    <contour>
      <point x="386" y="584" type="line"/>
      <point x="340" y="584" type="line" smooth="yes"/>
      <point x="316" y="584"/>
      <point x="294" y="580"/>
      <point x="279" y="573" type="curve"/>
      <point x="279" y="480" type="line"/>
      <point x="377" y="480" type="line"/>
      <point x="377" y="331" type="line"/>
      <point x="279" y="331" type="line"/>
      <point x="279" y="-118" type="line"/>
      <point x="217" y="-160"/>
      <point x="146" y="-178"/>
      <point x="63" y="-178" type="curve" smooth="yes"/>
      <point x="-1" y="-178" type="line"/>
      <point x="-1" y="-39" type="line"/>
      <point x="30" y="-39" type="line" smooth="yes"/>
      <point x="53" y="-39"/>
      <point x="75" y="-35"/>
      <point x="90" y="-28" type="curve"/>
      <point x="90" y="331" type="line"/>
      <point x="36" y="331" type="line"/>
      <point x="36" y="480" type="line"/>
      <point x="90" y="480" type="line"/>
      <point x="90" y="663" type="line"/>
      <point x="152" y="705"/>
      <point x="224" y="723"/>
      <point x="307" y="723" type="curve" smooth="yes"/>
      <point x="386" y="723" type="line"/>
    </contour>
  </outline>
</glyph>
<glyph name="circumflex" format="1">
  <advance width="575"/>
  <unicode hex="02C6"/>
  <outline>
    <contour>
      <point x="513" y="540" type="line"/>
      <point x="355" y="540" type="line"/>
      <point x="288" y="638" type="line"/>
      <point x="221" y="540" type="line"/>
      <point x="62" y="540" type="line"/>
      <point x="192" y="720" type="line"/>
      <point x="384" y="720" type="line"/>
    </contour>
  </outline>
</glyph>
<glyph name="caron" format="1">
  <advance width="575"/>
  <unicode hex="02C7"/>
  <outline>
    <contour>
      <point x="513" y="720" type="line"/>
      <point x="384" y="540" type="line"/>
      <point x="192" y="540" type="line"/>
      <point x="62" y="720" type="line"/>
      <point x="221" y="720" type="line"/>
      <point x="288" y="622" type="line"/>
      <point x="355" y="720" type="line"/>
    </contour>
  </outline>
</glyph>
<glyph name="breve" format="1">
  <advance width="575"/>
  <unicode hex="02D8"/>
  <outline>
    <contour>
      <point x="523" y="591" type="line"/>
      <point x="461" y="558"/>
      <point x="384" y="540"/>
      <point x="288" y="540" type="curve" smooth="yes"/>
      <point x="192" y="540"/>
      <point x="114" y="557"/>
      <point x="52" y="591" type="curve"/>
      <point x="52" y="720" type="line"/>
      <point x="229" y="720" type="line"/>
      <point x="229" y="659" type="line"/>
      <point x="245" y="654"/>
      <point x="263" y="651"/>
      <point x="288" y="651" type="curve" smooth="yes"/>
      <point x="312" y="651"/>
      <point x="331" y="654"/>
      <point x="347" y="659" type="curve"/>
      <point x="347" y="720" type="line"/>
      <point x="523" y="720" type="line"/>
    </contour>
  </outline>
</glyph>
<glyph name="dotaccent" format="1">
  <advance width="575"/>
  <unicode hex="02D9"/>
  <outline>
    <contour>
      <point x="375" y="540" type="line"/>
      <point x="201" y="540" type="line"/>
      <point x="201" y="693" type="line"/>
      <point x="375" y="693" type="line"/>
    </contour>
  </outline>
</glyph>
<glyph name="ring" format="1">
  <advance width="575"/>
  <unicode hex="02DA"/>
  <outline>
    <contour>
      <point x="491" y="578" type="line"/>
      <point x="437" y="554"/>
      <point x="370" y="540"/>
      <point x="288" y="540" type="curve" smooth="yes"/>
      <point x="206" y="540"/>
      <point x="139" y="553"/>
      <point x="84" y="578" type="curve"/>
      <point x="84" y="713" type="line"/>
      <point x="139" y="738"/>
      <point x="206" y="751"/>
      <point x="288" y="751" type="curve" smooth="yes"/>
      <point x="370" y="751"/>
      <point x="437" y="737"/>
      <point x="491" y="713" type="curve"/>
    </contour>
    <contour>
      <point x="348" y="622" type="curve"/>
      <point x="348" y="668" type="line"/>
      <point x="332" y="673"/>
      <point x="311" y="675"/>
      <point x="288" y="675" type="curve" smooth="yes"/>
      <point x="264" y="675"/>
      <point x="243" y="673"/>
      <point x="228" y="668" type="curve"/>
      <point x="228" y="622" type="line"/>
      <point x="243" y="618"/>
      <point x="264" y="616"/>
      <point x="288" y="616" type="curve" smooth="yes"/>
      <point x="311" y="616"/>
      <point x="332" y="618"/>
    </contour>
  </outline>
</glyph>
<glyph name="ogonek" format="1">
  <advance width="575"/>
  <unicode hex="02DB"/>
  <outline>
    <contour>
      <point x="437" y="-170" type="line"/>
      <point x="425" y="-170" type="line" smooth="yes"/>
      <point x="345" y="-170"/>
      <point x="273" y="-157"/>
      <point x="214" y="-120" type="curve"/>
      <point x="214" y="10" type="line"/>
      <point x="359" y="10" type="line"/>
      <point x="359" y="-51" type="line"/>
      <point x="373" y="-61"/>
      <point x="394" y="-64"/>
      <point x="417" y="-64" type="curve" smooth="yes"/>
      <point x="437" y="-64" type="line"/>
    </contour>
  </outline>
</glyph>
<glyph name="tilde" format="1">
  <advance width="575"/>
  <unicode hex="02DC"/>
  <outline>
    <contour>
      <point x="523" y="720" type="line"/>
      <point x="462" y="540" type="line"/>
      <point x="328" y="540" type="line"/>
      <point x="214" y="616" type="line"/>
      <point x="189" y="540" type="line"/>
      <point x="52" y="540" type="line"/>
      <point x="113" y="720" type="line"/>
      <point x="247" y="720" type="line"/>
      <point x="361" y="644" type="line"/>
      <point x="387" y="720" type="line"/>
    </contour>
  </outline>
</glyph>
<glyph name="hungarumlaut" format="1">
  <advance width="575"/>
  <unicode hex="02DD"/>
  <outline>
    <contour>
      <point x="553" y="720" type="line"/>
      <point x="432" y="540" type="line"/>
      <point x="262" y="540" type="line"/>
      <point x="375" y="720" type="line"/>
    </contour>
    <contour>
      <point x="314" y="720" type="line"/>
      <point x="196" y="540" type="line"/>
      <point x="22" y="540" type="line"/>
      <point x="133" y="720" type="line"/>
    </contour>
  </outline>
</glyph>
<glyph name="endash" format="1">
  <advance width="536"/>
  <unicode hex="2013"/>
  <outline>
    <contour>
      <point x="506" y="218" type="line"/>
      <point x="30" y="218" type="line"/>
      <point x="30" y="378" type="line"/>
      <point x="506" y="378" type="line"/>
    </contour>
  </outline>
</glyph>
<glyph name="emdash" format="1">
  <advance width="686"/>
  <unicode hex="2014"/>
  <outline>
    <contour>
      <point x="656" y="218" type="line"/>
      <point x="30" y="218" type="line"/>
      <point x="30" y="378" type="line"/>
      <point x="656" y="378" type="line"/>
    </contour>
  </outline>
</glyph>
<glyph name="quoteleft" format="1">
  <advance width="325"/>
  <unicode hex="2018"/>
  <unicode hex="02BB"/>
  <outline>
    <contour>
      <point x="288" y="430" type="line"/>
      <point x="81" y="430" type="line"/>
      <point x="37" y="720" type="line"/>
      <point x="244" y="720" type="line"/>
    </contour>
  </outline>
</glyph>
<glyph name="quoteright" format="1">
  <advance width="325"/>
  <unicode hex="2019"/>
  <unicode hex="02BC"/>
  <outline>
    <contour>
      <point x="288" y="720" type="line"/>
      <point x="243" y="430" type="line"/>
      <point x="36" y="430" type="line"/>
      <point x="81" y="720" type="line"/>
    </contour>
  </outline>
</glyph>
<glyph name="quotesinglbase" format="1">
  <advance width="326"/>
  <unicode hex="201A"/>
  <outline>
    <contour>
      <point x="280" y="179" type="line"/>
      <point x="235" y="-111" type="line"/>
      <point x="28" y="-111" type="line"/>
      <point x="73" y="179" type="line"/>
    </contour>
  </outline>
</glyph>
<glyph name="quotedblleft" format="1">
  <advance width="629"/>
  <unicode hex="201C"/>
  <outline>
    <contour>
      <point x="592" y="430" type="line"/>
      <point x="386" y="430" type="line"/>
      <point x="342" y="720" type="line"/>
      <point x="548" y="720" type="line"/>
    </contour>
    <contour>
      <point x="288" y="430" type="line"/>
      <point x="81" y="430" type="line"/>
      <point x="37" y="720" type="line"/>
      <point x="244" y="720" type="line"/>
    </contour>
  </outline>
</glyph>
<glyph name="quotedblright" format="1">
  <advance width="629"/>
  <unicode hex="201D"/>
  <outline>
    <contour>
      <point x="592" y="720" type="line"/>
      <point x="548" y="430" type="line"/>
      <point x="342" y="430" type="line"/>
      <point x="386" y="720" type="line"/>
    </contour>
    <contour>
      <point x="288" y="720" type="line"/>
      <point x="243" y="430" type="line"/>
      <point x="37" y="430" type="line"/>
      <point x="81" y="720" type="line"/>
    </contour>
  </outline>
</glyph>
<glyph name="quotedblbase" format="1">
  <advance width="629"/>
  <unicode hex="201E"/>
  <outline>
    <contour>
      <point x="584" y="179" type="line"/>
      <point x="540" y="-111" type="line"/>
      <point x="334" y="-111" type="line"/>
      <point x="378" y="179" type="line"/>
    </contour>
    <contour>
      <point x="280" y="179" type="line"/>
      <point x="235" y="-111" type="line"/>
      <point x="29" y="-111" type="line"/>
      <point x="73" y="179" type="line"/>
    </contour>
  </outline>
</glyph>
<glyph name="dagger" format="1">
  <advance width="519"/>
  <unicode hex="2020"/>
  <outline>
    <contour>
      <point x="494" y="345" type="line"/>
      <point x="364" y="345" type="line"/>
      <point x="364" y="0" type="line"/>
      <point x="154" y="0" type="line"/>
      <point x="154" y="345" type="line"/>
      <point x="25" y="345" type="line"/>
      <point x="25" y="515" type="line"/>
      <point x="154" y="515" type="line"/>
      <point x="154" y="720" type="line"/>
      <point x="364" y="720" type="line"/>
      <point x="364" y="515" type="line"/>
      <point x="494" y="515" type="line"/>
    </contour>
  </outline>
</glyph>
<glyph name="daggerdbl" format="1">
  <advance width="519"/>
  <unicode hex="2021"/>
  <outline>
    <contour>
      <point x="494" y="149" type="line"/>
      <point x="361" y="149" type="line"/>
      <point x="361" y="0" type="line"/>
      <point x="157" y="0" type="line"/>
      <point x="157" y="149" type="line"/>
      <point x="25" y="149" type="line"/>
      <point x="25" y="308" type="line"/>
      <point x="157" y="308" type="line"/>
      <point x="157" y="371" type="line"/>
      <point x="25" y="371" type="line"/>
      <point x="25" y="530" type="line"/>
      <point x="157" y="530" type="line"/>
      <point x="157" y="720" type="line"/>
      <point x="361" y="720" type="line"/>
      <point x="361" y="530" type="line"/>
      <point x="494" y="530" type="line"/>
      <point x="494" y="371" type="line"/>
      <point x="361" y="371" type="line"/>
      <point x="361" y="308" type="line"/>
      <point x="494" y="308" type="line"/>
    </contour>
  </outline>
</glyph>
<glyph name="bullet" format="1">
  <advance width="616"/>
  <unicode hex="2022"/>
  <outline>
    <contour>
      <point x="544" y="216" type="line"/>
      <point x="480" y="178"/>
      <point x="402" y="159"/>
      <point x="309" y="159" type="curve" smooth="yes"/>
      <point x="216" y="159"/>
      <point x="137" y="178"/>
      <point x="73" y="216" type="curve"/>
      <point x="73" y="528" type="line"/>
      <point x="137" y="566"/>
      <point x="215" y="585"/>
      <point x="309" y="585" type="curve" smooth="yes"/>
      <point x="401" y="585"/>
      <point x="479" y="566"/>
      <point x="544" y="528" type="curve"/>
    </contour>
  </outline>
</glyph>
<glyph name="ellipsis" format="1">
  <advance width="914"/>
  <unicode hex="2026"/>
  <outline>
    <contour>
      <point x="865" y="0" type="line"/>
      <point x="658" y="0" type="line"/>
      <point x="658" y="179" type="line"/>
      <point x="865" y="179" type="line"/>
    </contour>
    <contour>
      <point x="561" y="0" type="line"/>
      <point x="353" y="0" type="line"/>
      <point x="353" y="179" type="line"/>
      <point x="561" y="179" type="line"/>
    </contour>
    <contour>
      <point x="256" y="0" type="line"/>
      <point x="48" y="0" type="line"/>
      <point x="48" y="179" type="line"/>
      <point x="256" y="179" type="line"/>
    </contour>
  </outline>
</glyph>
<glyph name="perthousand" format="1">
  <advance width="1914"/>
  <unicode hex="2030"/>
  <outline>
    <contour>
      <point x="1862" y="53" type="line"/>
      <point x="1798" y="13"/>
      <point x="1708" y="-12"/>
      <point x="1622" y="-12" type="curve" smooth="yes"/>
      <point x="1536" y="-12"/>
      <point x="1447" y="12"/>
      <point x="1382" y="53" type="curve"/>
      <point x="1382" y="350" type="line"/>
      <point x="1446" y="390"/>
      <point x="1535" y="415"/>
      <point x="1622" y="415" type="curve" smooth="yes"/>
      <point x="1707" y="415"/>
      <point x="1797" y="390"/>
      <point x="1862" y="350" type="curve"/>
    </contour>
    <contour>
      <point x="1315" y="53" type="line"/>
      <point x="1251" y="13"/>
      <point x="1161" y="-12"/>
      <point x="1075" y="-12" type="curve" smooth="yes"/>
      <point x="989" y="-12"/>
      <point x="900" y="12"/>
      <point x="835" y="53" type="curve"/>
      <point x="835" y="350" type="line"/>
      <point x="899" y="390"/>
      <point x="988" y="415"/>
      <point x="1075" y="415" type="curve" smooth="yes"/>
      <point x="1160" y="415"/>
      <point x="1250" y="390"/>
      <point x="1315" y="350" type="curve"/>
    </contour>
    <contour>
      <point x="933" y="720" type="line"/>
      <point x="646" y="0" type="line"/>
      <point x="434" y="0" type="line"/>
      <point x="720" y="720" type="line"/>
    </contour>
    <contour>
      <point x="532" y="371" type="line"/>
      <point x="468" y="331"/>
      <point x="379" y="306"/>
      <point x="292" y="306" type="curve" smooth="yes"/>
      <point x="207" y="306"/>
      <point x="117" y="330"/>
      <point x="52" y="371" type="curve"/>
      <point x="52" y="668" type="line"/>
      <point x="115" y="708"/>
      <point x="206" y="733"/>
      <point x="292" y="733" type="curve" smooth="yes"/>
      <point x="378" y="733"/>
      <point x="467" y="708"/>
      <point x="532" y="668" type="curve"/>
    </contour>
    <contour>
      <point x="1691" y="127" type="curve"/>
      <point x="1691" y="274" type="line"/>
      <point x="1672" y="283"/>
      <point x="1650" y="288"/>
      <point x="1622" y="288" type="curve" smooth="yes"/>
      <point x="1594" y="288"/>
      <point x="1572" y="283"/>
      <point x="1553" y="274" type="curve"/>
      <point x="1553" y="127" type="line"/>
      <point x="1572" y="118"/>
      <point x="1594" y="114"/>
      <point x="1622" y="114" type="curve" smooth="yes"/>
      <point x="1650" y="114"/>
      <point x="1672" y="118"/>
    </contour>
    <contour>
      <point x="1144" y="127" type="curve"/>
      <point x="1144" y="274" type="line"/>
      <point x="1125" y="283"/>
      <point x="1103" y="288"/>
      <point x="1075" y="288" type="curve" smooth="yes"/>
      <point x="1047" y="288"/>
      <point x="1025" y="283"/>
      <point x="1006" y="274" type="curve"/>
      <point x="1006" y="127" type="line"/>
      <point x="1025" y="118"/>
      <point x="1047" y="114"/>
      <point x="1075" y="114" type="curve" smooth="yes"/>
      <point x="1103" y="114"/>
      <point x="1125" y="118"/>
    </contour>
    <contour>
      <point x="360" y="445" type="curve"/>
      <point x="360" y="592" type="line"/>
      <point x="342" y="601"/>
      <point x="320" y="606"/>
      <point x="292" y="606" type="curve" smooth="yes"/>
      <point x="264" y="606"/>
      <point x="242" y="601"/>
      <point x="223" y="592" type="curve"/>
      <point x="223" y="445" type="line"/>
      <point x="242" y="436"/>
      <point x="264" y="432"/>
      <point x="292" y="432" type="curve" smooth="yes"/>
      <point x="320" y="432"/>
      <point x="342" y="436"/>
    </contour>
  </outline>
</glyph>
<glyph name="guilsinglleft" format="1">
  <advance width="399"/>
  <unicode hex="2039"/>
  <outline>
    <contour>
      <point x="353" y="-10" type="line"/>
      <point x="35" y="166" type="line"/>
      <point x="35" y="314" type="line"/>
      <point x="353" y="490" type="line"/>
      <point x="353" y="328" type="line"/>
      <point x="183" y="240" type="line"/>
      <point x="353" y="153" type="line"/>
    </contour>
  </outline>
</glyph>
<glyph name="guilsinglright" format="1">
  <advance width="399"/>
  <unicode hex="203A"/>
  <outline>
    <contour>
      <point x="364" y="166" type="line"/>
      <point x="46" y="-10" type="line"/>
      <point x="46" y="153" type="line"/>
      <point x="216" y="240" type="line"/>
      <point x="46" y="328" type="line"/>
      <point x="46" y="490" type="line"/>
      <point x="364" y="314" type="line"/>
    </contour>
  </outline>
</glyph>
<glyph name="fraction" format="1">
  <advance width="533"/>
  <unicode hex="2044"/>
  <unicode hex="2215"/>
  <outline>
    <contour>
      <point x="518" y="720" type="line"/>
      <point x="246" y="0" type="line"/>
      <point x="14" y="0" type="line"/>
      <point x="286" y="720" type="line"/>
    </contour>
  </outline>
</glyph>
<glyph name="Euro" format="1">
  <advance width="815"/>
  <unicode hex="20AC"/>
  <outline>
    <contour>
      <point x="316" y="380" type="line"/>
      <point x="316" y="341" type="line"/>
      <point x="461" y="341" type="line"/>
      <point x="461" y="202" type="line"/>
      <point x="316" y="202" type="line"/>
      <point x="316" y="170" type="line"/>
      <point x="347" y="159"/>
      <point x="382" y="152"/>
      <point x="430" y="152" type="curve" smooth="yes"/>
      <point x="478" y="152"/>
      <point x="513" y="160"/>
      <point x="543" y="172" type="curve"/>
      <point x="543" y="267" type="line"/>
      <point x="765" y="267" type="line"/>
      <point x="765" y="71" type="line"/>
      <point x="677" y="17"/>
      <point x="553" y="-13"/>
      <point x="430" y="-13" type="curve" smooth="yes"/>
      <point x="308" y="-13"/>
      <point x="185" y="17"/>
      <point x="95" y="71" type="curve"/>
      <point x="95" y="202" type="line"/>
      <point x="46" y="202" type="line"/>
      <point x="46" y="341" type="line"/>
      <point x="95" y="341" type="line"/>
      <point x="95" y="380" type="line"/>
      <point x="46" y="380" type="line"/>
      <point x="46" y="519" type="line"/>
      <point x="95" y="519" type="line"/>
      <point x="95" y="650" type="line"/>
      <point x="184" y="703"/>
      <point x="308" y="733"/>
      <point x="430" y="733" type="curve" smooth="yes"/>
      <point x="552" y="733"/>
      <point x="676" y="703"/>
      <point x="765" y="650" type="curve"/>
      <point x="765" y="454" type="line"/>
      <point x="543" y="454" type="line"/>
      <point x="543" y="547" type="line"/>
      <point x="513" y="560"/>
      <point x="478" y="567"/>
      <point x="430" y="567" type="curve" smooth="yes"/>
      <point x="382" y="567"/>
      <point x="347" y="561"/>
      <point x="316" y="549" type="curve"/>
      <point x="316" y="519" type="line"/>
      <point x="461" y="519" type="line"/>
      <point x="461" y="380" type="line"/>
    </contour>
  </outline>
</glyph>
<glyph name="uni2117" format="1">
  <advance width="913"/>
  <unicode hex="2117"/>
  <outline>
    <contour>
      <point x="851" y="76" type="line"/>
      <point x="750" y="16"/>
      <point x="607" y="-13"/>
      <point x="457" y="-13" type="curve" smooth="yes"/>
      <point x="304" y="-13"/>
      <point x="161" y="17"/>
      <point x="60" y="76" type="curve"/>
      <point x="60" y="644" type="line"/>
      <point x="161" y="703"/>
      <point x="304" y="733"/>
      <point x="457" y="733" type="curve" smooth="yes"/>
      <point x="607" y="733"/>
      <point x="750" y="704"/>
      <point x="851" y="644" type="curve"/>
    </contour>
    <contour>
      <point x="736" y="138" type="curve"/>
      <point x="736" y="582" type="line"/>
      <point x="651" y="620"/>
      <point x="556" y="639"/>
      <point x="456" y="639" type="curve" smooth="yes"/>
      <point x="359" y="639"/>
      <point x="263" y="621"/>
      <point x="177" y="583" type="curve"/>
      <point x="177" y="137" type="line"/>
      <point x="263" y="99"/>
      <point x="359" y="81"/>
      <point x="456" y="81" type="curve" smooth="yes"/>
      <point x="556" y="81"/>
      <point x="651" y="100"/>
    </contour>
    <contour>
      <point x="655" y="332" type="line"/>
      <point x="606" y="296"/>
      <point x="543" y="275"/>
      <point x="453" y="275" type="curve" smooth="yes"/>
      <point x="411" y="275" type="line"/>
      <point x="411" y="150" type="line"/>
      <point x="273" y="150" type="line"/>
      <point x="273" y="567" type="line"/>
      <point x="453" y="567" type="line" smooth="yes"/>
      <point x="543" y="567"/>
      <point x="606" y="547"/>
      <point x="655" y="511" type="curve"/>
    </contour>
    <contour>
      <point x="519" y="383" type="curve"/>
      <point x="519" y="458" type="line"/>
      <point x="504" y="467"/>
      <point x="487" y="470"/>
      <point x="454" y="470" type="curve" smooth="yes"/>
      <point x="409" y="470" type="line"/>
      <point x="409" y="371" type="line"/>
      <point x="454" y="371" type="line" smooth="yes"/>
      <point x="486" y="371"/>
      <point x="503" y="374"/>
    </contour>
  </outline>
</glyph>
<glyph name="trademark" format="1">
  <advance width="1033"/>
  <unicode hex="2122"/>
  <outline>
    <contour>
      <point x="994" y="302" type="line"/>
      <point x="859" y="302" type="line"/>
      <point x="859" y="603" type="line"/>
      <point x="840" y="610"/>
      <point x="813" y="614"/>
      <point x="781" y="616" type="curve"/>
      <point x="781" y="302" type="line"/>
      <point x="645" y="302" type="line"/>
      <point x="645" y="616" type="line"/>
      <point x="613" y="614"/>
      <point x="586" y="610"/>
      <point x="567" y="603" type="curve"/>
      <point x="567" y="302" type="line"/>
      <point x="432" y="302" type="line"/>
      <point x="432" y="675" type="line"/>
      <point x="509" y="711"/>
      <point x="604" y="727"/>
      <point x="713" y="727" type="curve" smooth="yes"/>
      <point x="822" y="727"/>
      <point x="917" y="711"/>
      <point x="994" y="675" type="curve"/>
    </contour>
    <contour>
      <point x="382" y="608" type="line"/>
      <point x="267" y="608" type="line"/>
      <point x="267" y="302" type="line"/>
      <point x="127" y="302" type="line"/>
      <point x="127" y="608" type="line"/>
      <point x="12" y="608" type="line"/>
      <point x="12" y="720" type="line"/>
      <point x="382" y="720" type="line"/>
    </contour>
  </outline>
</glyph>
<glyph name="radical" format="1">
  <advance width="725"/>
  <unicode hex="221A"/>
  <outline>
    <contour>
      <point x="695" y="720" type="line"/>
      <point x="442" y="0" type="line"/>
      <point x="209" y="0" type="line"/>
      <point x="30" y="361" type="line"/>
      <point x="234" y="361" type="line"/>
      <point x="316" y="173" type="line"/>
      <point x="479" y="720" type="line"/>
    </contour>
  </outline>
</glyph>
<glyph name="apple" format="1">
  <advance width="786"/>
  <unicode hex="F8FF"/>
  <outline>
    <contour>
      <point x="726" y="493" type="line"/>
      <point x="520" y="493" type="line"/>
      <point x="520" y="552" type="line"/>
      <point x="485" y="566"/>
      <point x="444" y="574"/>
      <point x="392" y="574" type="curve" smooth="yes"/>
      <point x="342" y="574"/>
      <point x="301" y="566"/>
      <point x="265" y="552" type="curve"/>
      <point x="265" y="493" type="line"/>
      <point x="58" y="493" type="line"/>
      <point x="58" y="645" type="line"/>
      <point x="148" y="703"/>
      <point x="268" y="733"/>
      <point x="393" y="733" type="curve" smooth="yes"/>
      <point x="516" y="733"/>
      <point x="635" y="704"/>
      <point x="726" y="645" type="curve"/>
    </contour>
    <contour>
      <point x="631" y="291" type="line"/>
      <point x="474" y="291" type="line"/>
      <point x="474" y="237" type="line"/>
      <point x="311" y="237" type="line"/>
      <point x="311" y="291" type="line"/>
      <point x="153" y="291" type="line"/>
      <point x="153" y="430" type="line"/>
      <point x="311" y="430" type="line"/>
      <point x="311" y="483" type="line"/>
      <point x="474" y="483" type="line"/>
      <point x="474" y="430" type="line"/>
      <point x="631" y="430" type="line"/>
    </contour>
    <contour>
      <point x="726" y="75" type="line"/>
      <point x="635" y="16"/>
      <point x="516" y="-13"/>
      <point x="393" y="-13" type="curve" smooth="yes"/>
      <point x="268" y="-13"/>
      <point x="148" y="17"/>
      <point x="58" y="75" type="curve"/>
      <point x="58" y="227" type="line"/>
      <point x="265" y="227" type="line"/>
      <point x="265" y="168" type="line"/>
      <point x="301" y="153"/>
      <point x="342" y="146"/>
      <point x="392" y="146" type="curve" smooth="yes"/>
      <point x="444" y="146"/>
      <point x="485" y="153"/>
      <point x="520" y="168" type="curve"/>
      <point x="520" y="227" type="line"/>
      <point x="726" y="227" type="line"/>
    </contour>
  </outline>
</glyph>
<glyph name="fi" format="1">
  <advance width="692"/>
  <unicode hex="FB01"/>
  <outline>
    <contour>
      <point x="638" y="558" type="line"/>
      <point x="445" y="558" type="line"/>
      <point x="445" y="720" type="line"/>
      <point x="638" y="720" type="line"/>
    </contour>
    <contour>
      <point x="636" y="0" type="line"/>
      <point x="447" y="0" type="line"/>
      <point x="447" y="480" type="line"/>
      <point x="636" y="480" type="line"/>
    </contour>
    <contour>
      <point x="379" y="584" type="line"/>
      <point x="333" y="584" type="line" smooth="yes"/>
      <point x="310" y="584"/>
      <point x="288" y="580"/>
      <point x="273" y="573" type="curve"/>
      <point x="273" y="480" type="line"/>
      <point x="370" y="480" type="line"/>
      <point x="370" y="331" type="line"/>
      <point x="273" y="331" type="line"/>
      <point x="273" y="0" type="line"/>
      <point x="84" y="0" type="line"/>
      <point x="84" y="331" type="line"/>
      <point x="29" y="331" type="line"/>
      <point x="29" y="480" type="line"/>
      <point x="84" y="480" type="line"/>
      <point x="84" y="663" type="line"/>
      <point x="146" y="705"/>
      <point x="217" y="723"/>
      <point x="300" y="723" type="curve" smooth="yes"/>
      <point x="379" y="723" type="line"/>
    </contour>
  </outline>
</glyph>
<glyph name="registered" format="1">
  <advance width="913"/>
  <outline>
    <contour>
      <point x="851" y="76" type="line"/>
      <point x="750" y="16"/>
      <point x="607" y="-13"/>
      <point x="457" y="-13" type="curve" smooth="yes"/>
      <point x="304" y="-13"/>
      <point x="161" y="17"/>
      <point x="60" y="76" type="curve"/>
      <point x="60" y="644" type="line"/>
      <point x="161" y="703"/>
      <point x="304" y="733"/>
      <point x="457" y="733" type="curve" smooth="yes"/>
      <point x="607" y="733"/>
      <point x="750" y="704"/>
      <point x="851" y="644" type="curve"/>
    </contour>
    <contour>
      <point x="736" y="138" type="curve"/>
      <point x="736" y="582" type="line"/>
      <point x="651" y="620"/>
      <point x="556" y="639"/>
      <point x="456" y="639" type="curve" smooth="yes"/>
      <point x="359" y="639"/>
      <point x="263" y="621"/>
      <point x="177" y="583" type="curve"/>
      <point x="177" y="137" type="line"/>
      <point x="263" y="99"/>
      <point x="359" y="81"/>
      <point x="456" y="81" type="curve" smooth="yes"/>
      <point x="556" y="81"/>
      <point x="651" y="100"/>
    </contour>
    <contour>
      <point x="652" y="152" type="line"/>
      <point x="514" y="152" type="line"/>
      <point x="514" y="285" type="line"/>
      <point x="497" y="294"/>
      <point x="479" y="297"/>
      <point x="447" y="297" type="curve" smooth="yes"/>
      <point x="399" y="297" type="line"/>
      <point x="399" y="152" type="line"/>
      <point x="260" y="152" type="line"/>
      <point x="260" y="569" type="line"/>
      <point x="451" y="569" type="line" smooth="yes"/>
      <point x="540" y="569"/>
      <point x="601" y="553"/>
      <point x="651" y="518" type="curve"/>
      <point x="651" y="375" type="line"/>
      <point x="631" y="363"/>
      <point x="606" y="354"/>
      <point x="575" y="348" type="curve"/>
      <point x="606" y="342"/>
      <point x="634" y="331"/>
      <point x="652" y="320" type="curve"/>
    </contour>
    <contour>
      <point x="513" y="400" type="curve"/>
      <point x="513" y="468" type="line"/>
      <point x="498" y="477"/>
      <point x="483" y="479"/>
      <point x="451" y="479" type="curve" smooth="yes"/>
      <point x="397" y="479" type="line"/>
      <point x="397" y="389" type="line"/>
      <point x="450" y="389" type="line" smooth="yes"/>
      <point x="482" y="389"/>
      <point x="499" y="393"/>
    </contour>
  </outline>
</glyph>
